<?xml version="1.0" standalone="no"?>
<!DOCTYPE svg PUBLIC "-//W3C//DTD SVG 20010904//EN"
 "http://www.w3.org/TR/2001/REC-SVG-20010904/DTD/svg10.dtd">
<svg version="1.0" xmlns="http://www.w3.org/2000/svg"
 width="480.000000pt" height="720.000000pt" viewBox="0 0 480.000000 720.000000"
 preserveAspectRatio="xMidYMid meet">

<g transform="translate(0.000000,720.000000) scale(0.100000,-0.100000)"
fill="#000000" stroke="none">
<path d="M4687 7073 c12 -2 24 -12 26 -21 3 -12 5 -10 6 6 1 18 -4 22 -26 21
-23 -1 -24 -2 -6 -6z"/>
<path d="M2310 6750 c-48 -5 -88 -15 -110 -29 -19 -11 -44 -25 -55 -30 -30
-13 -60 -50 -90 -110 -22 -45 -26 -63 -22 -115 2 -33 7 -72 11 -86 4 -14 11
-54 16 -90 4 -36 15 -85 24 -109 9 -24 14 -46 11 -49 -3 -3 -5 -2 -5 3 0 4 -6
2 -14 -4 -10 -9 -11 -23 -4 -64 12 -74 49 -170 70 -185 10 -7 18 -18 18 -23 0
-6 9 -23 20 -37 19 -23 21 -38 18 -136 -3 -103 -1 -116 26 -181 15 -38 38 -79
49 -90 l21 -20 -18 22 c-23 27 -13 48 14 31 28 -18 51 14 39 54 -5 19 -4 28 4
28 7 0 6 4 -3 10 -12 8 -12 10 5 10 35 0 65 -12 58 -23 -4 -7 0 -8 11 -4 10 4
25 7 33 7 11 0 14 6 10 21 -5 17 -2 20 14 16 10 -3 17 -2 14 3 -2 4 9 19 25
34 18 15 30 21 30 13 0 -7 9 -13 19 -13 11 0 17 4 15 8 -3 4 0 8 5 8 17 0 13
-37 -5 -44 -9 -3 -14 -12 -11 -19 2 -6 -7 -29 -20 -49 -12 -21 -23 -40 -23
-44 0 -11 46 51 89 120 l44 70 2 110 c1 66 7 123 15 141 15 34 16 40 18 74 l2
24 24 -26 c17 -19 27 -22 35 -14 16 16 14 32 -3 18 -10 -9 -16 -8 -26 3 -6 9
-9 20 -5 25 3 6 0 8 -8 5 -11 -4 -13 1 -10 20 3 16 10 23 19 19 9 -3 14 2 14
15 0 11 -6 22 -12 25 -10 3 -10 7 0 20 15 17 52 19 52 2 0 -5 4 -4 9 4 11 17
3 41 -12 41 -6 0 -21 -10 -34 -22 l-23 -21 0 21 c0 12 6 22 13 22 10 0 14 32
16 131 3 128 2 132 -25 172 -15 23 -35 47 -43 54 -9 6 -34 46 -56 88 -21 43
-52 87 -69 100 -27 20 -129 58 -145 54 -3 -1 -40 -5 -81 -9z m260 -258 c17
-13 28 -27 25 -32 -3 -5 4 -24 16 -44 12 -21 18 -43 14 -55 -3 -11 -2 -29 4
-39 7 -13 7 -23 -2 -31 -9 -10 -8 -11 8 -5 11 4 17 3 12 -1 -4 -5 0 -20 9 -34
l17 -25 -28 22 c-15 12 -36 22 -47 22 -10 0 -35 7 -55 15 -31 13 -45 14 -85 3
-26 -6 -48 -15 -48 -20 0 -13 -54 -35 -75 -30 -11 2 -27 10 -36 18 -13 12 -63
21 -126 24 -20 0 -16 85 6 128 27 53 48 68 116 83 33 6 67 16 75 21 8 4 50 7
92 6 64 -2 83 -6 108 -26z m50 -244 c0 -6 8 -17 18 -24 12 -10 13 -13 3 -14
-11 0 -11 -4 3 -19 9 -10 18 -28 21 -40 2 -11 6 -25 10 -30 3 -5 1 -12 -3 -15
-9 -5 -28 -67 -36 -111 -5 -34 -25 -75 -35 -75 -6 0 -8 -7 -5 -15 6 -13 -5
-19 -22 -12 -3 1 -14 -14 -25 -33 -10 -19 -18 -30 -19 -25 0 6 -4 4 -9 -3 -4
-7 -17 -15 -27 -17 -10 -2 -20 -4 -21 -4 -2 -1 -5 0 -6 2 -2 1 -11 -4 -20 -12
-10 -7 -17 -10 -17 -6 0 4 -7 2 -15 -5 -18 -15 -58 -19 -66 -7 -4 5 -23 10
-42 11 -35 1 -66 26 -67 53 0 7 -12 24 -26 38 -21 21 -24 28 -13 41 7 8 8 14
3 12 -5 -2 -10 2 -11 7 -2 6 0 10 5 10 14 0 32 16 32 28 0 8 -3 8 -9 -1 -14
-23 -54 -10 -70 23 -8 17 -18 38 -23 47 -12 26 -10 32 7 18 8 -6 20 -10 27 -7
9 4 8 6 -3 6 -28 2 -41 28 -43 86 -2 61 3 69 52 80 27 6 32 4 32 -12 0 -11 -9
-29 -19 -40 -20 -21 -20 -21 0 -26 10 -3 17 -2 14 3 -3 4 2 13 9 20 12 9 15 6
14 -19 -1 -41 7 -47 44 -33 38 14 45 10 30 -23 -6 -14 -25 -29 -44 -35 -31 -9
-31 -9 -3 -4 17 3 37 5 46 5 11 0 19 18 27 59 7 33 17 62 23 65 16 10 34 -11
49 -55 7 -22 21 -47 31 -56 26 -23 15 -34 -26 -27 -23 4 -35 2 -35 -6 0 -9 -5
-9 -21 -1 -14 8 -24 8 -33 1 -7 -6 -16 -8 -19 -4 -4 3 -7 2 -7 -3 0 -6 5 -15
10 -20 12 -12 -4 -29 -44 -49 -23 -12 -31 -42 -17 -64 8 -12 12 -13 26 -1 12
10 21 10 41 1 31 -14 67 -15 45 -2 -7 5 -10 14 -6 21 8 13 120 12 149 -2 27
-15 42 5 28 37 -6 14 -16 25 -22 25 -6 0 -27 7 -47 15 l-36 15 27 25 c18 16
40 25 64 26 34 2 34 2 -11 8 -59 9 -77 26 -88 86 -9 49 0 75 25 75 6 0 5 -4
-3 -9 -12 -7 -12 -13 0 -40 8 -17 18 -32 24 -32 5 -1 24 -3 41 -5 43 -5 85 32
73 64 -5 12 -11 22 -13 22 -3 0 -3 -6 0 -13 3 -8 -2 -20 -10 -27 -9 -7 -13
-17 -9 -23 3 -6 1 -7 -5 -3 -6 4 -10 22 -8 41 1 19 -1 32 -6 29 -4 -3 -8 -1
-8 5 0 5 10 11 23 13 37 5 97 -4 97 -14z m-311 -67 c0 -20 -3 -29 -6 -21 -21
64 -22 69 -7 63 9 -3 14 -19 13 -42z m161 9 c0 -5 8 -10 17 -10 9 0 14 -3 10
-6 -8 -8 -47 5 -47 17 0 5 5 9 10 9 6 0 10 -4 10 -10z m-195 -10 c3 -5 1 -10
-4 -10 -6 0 -11 5 -11 10 0 6 2 10 4 10 3 0 8 -4 11 -10z m-168 -182 c-3 -7
-5 -2 -5 12 0 14 2 19 5 13 2 -7 2 -19 0 -25z m298 -18 c19 -7 18 -9 -8 -19
-54 -21 -92 -7 -49 18 20 12 30 12 57 1z m205 -270 c0 -5 -8 -10 -17 -10 -15
0 -16 2 -3 10 19 12 20 12 20 0z"/>
<path d="M2530 6506 c0 -2 8 -10 18 -17 15 -13 16 -12 3 4 -13 16 -21 21 -21
13z"/>
<path d="M2598 6206 c6 -50 -11 -99 -39 -113 -15 -8 -18 -13 -8 -13 26 0 48
33 59 90 5 29 10 54 10 55 0 2 -6 5 -13 8 -9 3 -12 -4 -9 -27z"/>
<path d="M2405 5920 c-8 -13 5 -13 25 0 13 8 13 10 -2 10 -9 0 -20 -4 -23 -10z"/>
<path d="M2326 5881 c-9 -15 53 -19 72 -5 15 12 12 13 -25 14 -23 0 -44 -4
-47 -9z"/>
<path d="M2781 6094 c0 -11 3 -14 6 -6 3 7 2 16 -1 19 -3 4 -6 -2 -5 -13z"/>
<path d="M2742 6040 c0 -14 2 -19 5 -12 2 6 2 18 0 25 -3 6 -5 1 -5 -13z"/>
<path d="M2756 6013 c-6 -14 -5 -15 5 -6 7 7 10 15 7 18 -3 3 -9 -2 -12 -12z"/>
<path d="M2681 5674 c0 -11 3 -14 6 -6 3 7 2 16 -1 19 -3 4 -6 -2 -5 -13z"/>
<path d="M2165 5669 c-4 -6 -5 -12 -2 -15 2 -3 7 2 10 11 7 17 1 20 -8 4z"/>
<path d="M2690 5646 c0 -2 8 -10 18 -17 15 -13 16 -12 3 4 -13 16 -21 21 -21
13z"/>
<path d="M2755 5605 c22 -18 86 -53 70 -38 -5 6 -28 20 -50 32 -22 13 -31 15
-20 6z"/>
<path d="M2120 5580 l-25 -21 28 12 c15 7 27 16 27 21 0 11 -1 10 -30 -12z"/>
<path d="M2049 5539 l-24 -20 28 17 c15 9 27 18 27 20 0 8 -8 4 -31 -17z"/>
<path d="M3007 5469 c7 -7 15 -10 18 -7 3 3 -2 9 -12 12 -14 6 -15 5 -6 -5z"/>
<path d="M3205 5370 c10 -11 20 -20 23 -20 3 0 -3 9 -13 20 -10 11 -20 20 -23
20 -3 0 3 -9 13 -20z"/>
<path d="M1532 4575 c0 -16 2 -22 5 -12 2 9 2 23 0 30 -3 6 -5 -1 -5 -18z"/>
<path d="M1523 4485 c0 -22 2 -30 4 -17 2 12 2 30 0 40 -3 9 -5 -1 -4 -23z"/>
<path d="M1523 4380 c0 -25 2 -35 4 -22 2 12 2 32 0 45 -2 12 -4 2 -4 -23z"/>
<path d="M3403 4365 c0 -22 2 -30 4 -17 2 12 2 30 0 40 -3 9 -5 -1 -4 -23z"/>
<path d="M3032 4305 c0 -16 2 -22 5 -12 2 9 2 23 0 30 -3 6 -5 -1 -5 -18z"/>
<path d="M3033 4240 c-9 -14 -10 -27 -3 -46 13 -33 20 -27 30 26 8 44 -6 55
-27 20z"/>
<path d="M1551 4230 c0 -15 -4 -30 -8 -36 -5 -5 -2 -4 5 2 8 6 12 22 9 35 -4
24 -4 24 -6 -1z"/>
<path d="M3037 4133 c-2 -5 2 -24 11 -43 13 -31 15 -33 22 -15 4 12 1 29 -8
43 -16 24 -19 26 -25 15z"/>
<path d="M1521 4094 c0 -11 3 -14 6 -6 3 7 2 16 -1 19 -3 4 -6 -2 -5 -13z"/>
<path d="M1512 3876 c-2 -149 -3 -161 -24 -185 l-22 -26 27 25 28 26 -4 159
-3 160 -2 -159z"/>
<path d="M1841 3913 c-1 -13 -7 -23 -16 -23 -17 0 -20 -35 -4 -45 7 -5 4 -14
-7 -26 -10 -11 -12 -19 -6 -19 7 0 12 5 12 10 0 6 5 10 10 10 14 0 13 -67 -2
-93 -6 -12 -11 -39 -9 -60 1 -20 -7 -57 -18 -82 -11 -25 -16 -45 -10 -45 11 0
12 -37 0 -44 -5 -3 -12 -57 -16 -119 l-7 -113 -31 2 c-18 1 -22 -1 -9 -3 39
-7 50 -44 64 -203 4 -48 -3 -70 -21 -70 -16 0 -24 13 -37 60 -15 54 -44 101
-44 71 0 -20 -2 -26 -11 -38 -7 -7 -6 -14 2 -19 9 -5 7 -11 -6 -21 -17 -11
-17 -13 -2 -13 10 0 14 -5 11 -15 -4 -9 0 -15 7 -15 12 0 12 -2 1 -9 -11 -7
-11 -9 2 -14 10 -4 16 -19 16 -41 0 -27 -3 -34 -15 -30 -16 7 -61 74 -57 87 1
4 -9 11 -22 16 -23 10 -44 41 -26 41 6 0 10 9 10 19 0 11 4 21 9 23 6 2 12 21
15 43 3 22 9 54 14 70 14 48 6 55 -56 54 -32 -1 -49 -3 -39 -6 10 -3 16 -10
14 -17 -7 -18 -25 -116 -32 -175 l-6 -54 75 -73 c41 -41 84 -74 94 -74 11 0
31 9 46 21 23 18 29 19 43 7 16 -12 16 -11 0 12 -16 23 -23 60 -12 60 4 0 19
-7 35 -15 32 -17 41 -52 16 -61 -11 -4 -12 -12 -6 -27 4 -12 14 -80 20 -152 8
-86 20 -152 35 -195 29 -78 40 -256 38 -590 -1 -257 -2 -270 -11 -270 -4 0 -6
-20 -4 -43 l4 -44 -294 -8 c-361 -11 -391 -11 -608 -1 -146 7 -191 5 -270 -9
-168 -30 -211 -33 -427 -37 l-211 -3 -1 -67 c0 -49 4 -68 13 -68 7 0 13 -7 13
-15 0 -18 -13 -20 -20 -2 -3 7 -6 5 -6 -5 -1 -12 6 -18 19 -18 11 0 20 7 20
16 0 8 4 12 10 9 5 -3 10 -2 10 4 0 5 -6 12 -12 14 -10 4 -10 6 -1 6 17 1 25
-16 18 -39 -4 -14 -15 -20 -36 -20 -16 0 -29 -4 -29 -10 0 -5 12 -10 26 -10
23 0 25 -3 19 -22 -4 -13 -7 -32 -7 -43 0 -11 -2 -14 -5 -7 -3 6 -9 10 -14 6
-5 -3 -9 0 -9 5 0 6 4 11 9 11 6 0 9 9 8 20 -1 11 -6 20 -13 20 -8 0 -11 -44
-12 -149 -1 -133 1 -150 16 -154 16 -4 16 -5 0 -6 -16 -1 -18 -11 -17 -73 l1
-73 20 83 20 82 52 0 c39 0 53 -4 53 -15 0 -8 -3 -13 -6 -11 -3 2 -11 -2 -18
-9 -9 -10 -9 -15 -1 -17 17 -6 0 -28 -20 -27 -14 0 -13 2 3 9 17 7 12 12 -12
9 -4 0 -10 7 -13 16 -5 14 -7 14 -25 0 -11 -9 -15 -14 -9 -11 7 3 14 -3 17
-15 4 -16 3 -18 -9 -8 -11 9 -15 8 -20 -6 -4 -10 -1 -21 7 -26 11 -7 11 -9 -3
-9 -10 0 -18 -7 -18 -15 0 -8 5 -15 11 -15 5 0 7 6 3 13 -4 6 -3 9 1 4 5 -4 9
-16 10 -26 1 -13 -4 -17 -18 -13 -13 3 -18 1 -13 -6 3 -6 2 -13 -4 -17 -5 -3
-10 -17 -10 -31 0 -14 4 -23 9 -20 17 11 21 -25 6 -48 -13 -20 -13 -23 0 -23
8 0 15 5 15 10 0 6 3 7 7 4 3 -4 13 -2 20 5 11 9 16 9 23 -2 12 -19 -6 -30
-47 -30 -21 0 -33 -5 -33 -14 0 -11 18 -13 85 -11 47 1 85 -1 85 -6 0 -5 -9
-9 -19 -9 -11 0 -23 -5 -26 -10 -4 -6 -11 -7 -17 -4 -7 4 -8 2 -4 -4 7 -12 -1
-11 -41 5 -34 12 -65 14 -58 3 3 -6 11 -8 16 -5 5 4 9 1 9 -4 0 -6 -7 -11 -15
-11 -9 0 -15 -9 -15 -25 0 -14 5 -25 11 -25 5 0 7 4 4 10 -4 6 1 7 12 4 16 -6
16 -5 -1 8 -16 13 -17 16 -3 21 18 7 42 -17 32 -33 -3 -5 -13 -10 -21 -10 -15
0 -19 -16 -5 -24 5 -3 14 1 21 9 7 8 17 12 23 8 6 -3 7 -1 3 5 -4 7 -2 12 4
12 8 0 9 -11 5 -32 -12 -61 -16 -67 -51 -80 -21 -7 -34 -19 -34 -30 0 -10 5
-18 10 -18 6 0 10 7 10 16 0 8 4 13 9 9 6 -3 14 3 20 12 14 27 22 11 12 -25
-5 -18 -6 -32 -1 -32 4 0 16 44 25 98 18 98 36 144 58 141 26 -3 37 2 37 16 0
10 9 15 28 14 23 -2 24 -2 5 -6 -13 -2 -23 -9 -23 -14 0 -6 -15 -16 -32 -24
l-33 -15 45 7 c25 3 51 13 58 22 8 9 11 10 7 4 -8 -16 -3 -16 27 0 14 7 23 19
21 27 -4 13 -3 13 6 0 5 -8 8 -19 8 -25 -2 -13 93 -25 113 -14 13 7 13 8 1 9
-11 0 -9 4 4 14 18 13 17 14 -19 13 -31 -1 -35 -3 -22 -13 22 -16 20 -23 -4
-17 -11 3 -20 11 -20 18 0 7 -6 16 -12 19 -7 3 5 5 27 5 22 0 65 3 95 5 45 5
49 4 20 -3 -19 -5 -37 -8 -40 -6 -3 2 -6 -8 -5 -23 0 -15 2 -26 5 -24 3 1 15
5 27 8 14 4 20 11 17 22 -4 13 -2 12 6 -2 10 -15 14 -16 21 -5 6 10 9 10 9 2
0 -7 7 -10 15 -7 8 4 12 11 9 18 -3 6 1 3 9 -7 16 -19 114 -36 102 -18 -3 6
-17 11 -31 11 -14 0 -27 7 -31 16 -3 8 -12 13 -19 10 -7 -3 -16 -1 -18 3 -3 5
16 9 42 10 26 1 86 4 135 7 l87 7 1 -89 c1 -49 1 -92 0 -96 -1 -10 31 2 51 20
14 11 15 18 7 29 -9 9 -9 13 0 13 7 0 11 22 11 59 l0 60 43 6 c54 8 113 3 109
-10 -4 -11 28 -24 46 -18 6 3 12 11 12 19 0 9 10 14 28 13 15 0 21 -3 13 -6
-7 -3 -22 -14 -33 -25 -14 -14 -27 -18 -41 -13 -12 3 -28 7 -34 7 -9 1 -10 5
-2 15 9 10 7 13 -9 13 -11 0 -25 -7 -32 -15 -11 -13 -10 -15 6 -9 16 5 16 4 4
-5 -21 -15 -30 -14 -30 4 0 10 -10 15 -27 15 -21 0 -24 -3 -13 -9 8 -6 18 -7
22 -5 4 3 8 0 8 -6 0 -7 -7 -10 -15 -6 -8 3 -15 2 -15 -3 0 -12 67 -19 83 -9
9 5 14 -7 18 -45 l6 -52 1 51 2 51 50 -2 c35 -1 50 2 50 11 0 7 5 16 12 20 7
4 8 3 4 -4 -5 -8 1 -12 16 -12 18 0 20 2 8 10 -12 8 -10 10 8 10 13 0 20 -4
17 -10 -3 -5 -1 -10 4 -10 19 0 12 22 -9 27 -11 3 -20 9 -20 15 0 12 37 -9 48
-28 7 -12 31 -16 108 -19 54 -2 87 -1 72 2 -34 5 -35 14 -5 39 l22 19 -20 -25
c-11 -14 -13 -19 -5 -12 18 15 54 16 44 0 -4 -7 -3 -8 5 -4 6 4 8 13 5 19 -4
7 5 1 19 -12 25 -23 28 -23 45 -8 10 10 23 17 28 17 5 1 25 14 44 30 l34 30
-33 0 c-25 0 -32 4 -27 15 3 10 -1 15 -12 15 -14 0 -15 2 -2 10 15 9 33 -7 24
-22 -12 -19 56 -7 69 12 8 11 16 18 19 15 2 -3 4 5 4 17 -1 14 8 27 24 35 14
7 21 13 15 13 -5 0 1 7 15 15 45 26 52 28 59 18 3 -5 22 -10 41 -11 42 -3 84
-31 88 -61 2 -11 10 -21 17 -21 8 0 29 -16 48 -35 18 -19 53 -43 78 -54 30
-14 37 -21 22 -21 -12 0 -42 15 -67 34 -39 31 -46 33 -57 19 -11 -13 -8 -20
20 -45 24 -22 30 -33 22 -41 -18 -18 -13 -37 12 -38 15 0 9 -6 -23 -19 -56
-23 -146 -71 -195 -104 -62 -42 -71 -34 -26 23 40 51 53 79 41 86 -12 7 -40
-8 -109 -58 -52 -38 -57 -40 -131 -40 -110 0 -203 48 -170 88 8 10 0 17 -35
28 l-46 16 -121 -59 c-90 -45 -116 -61 -102 -67 11 -3 69 -25 129 -49 61 -23
119 -44 130 -47 16 -4 17 -5 3 -6 -29 -2 -21 -18 12 -25 17 -3 30 -11 30 -17
0 -8 -4 -8 -14 0 -11 9 -16 9 -22 0 -4 -7 -3 -9 4 -5 6 3 13 3 16 -2 7 -11
110 -5 114 7 2 6 9 11 15 11 7 -1 2 -9 -10 -19 -17 -14 -39 -18 -100 -18 -44
0 -93 -4 -111 -8 -27 -5 -31 -4 -26 9 3 9 11 13 17 9 5 -3 7 -1 4 4 -4 6 2 13
14 16 12 3 22 0 26 -9 5 -15 23 -10 23 7 0 6 -5 7 -10 4 -6 -3 -10 -1 -10 4 0
6 -11 11 -25 11 -14 0 -25 -5 -25 -11 0 -5 -5 -7 -10 -4 -6 4 -9 1 -8 -6 2 -6
-3 -14 -11 -17 -9 -3 -11 0 -6 8 5 8 4 11 -3 6 -6 -4 -9 -12 -6 -20 3 -7 -2
-13 -11 -13 -8 0 -15 4 -15 8 0 4 -9 11 -20 14 -11 3 -20 13 -20 20 0 8 -5 17
-12 21 -7 4 -8 3 -4 -4 5 -8 -1 -12 -15 -12 -22 0 -22 0 2 -19 13 -10 33 -21
44 -24 11 -3 -5 -4 -36 -3 -43 1 -56 -1 -52 -11 3 -8 -3 -13 -16 -13 -12 0
-21 -5 -21 -11 0 -7 28 -9 88 -5 262 16 362 18 362 6 0 -9 -10 -11 -30 -7 -16
4 -32 2 -35 -3 -3 -5 -12 -7 -20 -3 -8 3 -15 1 -15 -4 0 -5 6 -10 13 -10 6 0
20 -4 30 -8 11 -4 17 -3 17 5 0 8 9 11 25 8 14 -3 22 -1 18 5 -3 5 0 7 8 5 8
-3 13 -11 11 -17 -1 -7 2 -10 8 -6 5 3 10 2 10 -4 0 -5 -8 -12 -17 -14 -14 -4
-12 -5 5 -6 12 0 22 4 22 10 0 8 14 10 43 6 23 -3 34 -3 25 1 -12 5 -14 12 -9
21 5 7 14 11 20 7 7 -5 9 -1 5 9 -5 11 -10 13 -19 5 -6 -5 -15 -7 -19 -3 -4 4
-4 -1 0 -11 5 -14 3 -17 -12 -14 -10 2 -19 11 -18 19 1 11 -7 14 -30 12 l-31
-3 30 9 c17 5 85 11 151 14 l122 4 6 -49 c4 -27 4 -54 0 -60 -4 -6 -3 -8 3 -5
7 4 13 -11 17 -38 7 -43 8 -45 42 -45 l35 0 -7 48 c-4 26 -12 70 -19 99 l-12
51 76 5 c86 6 221 7 206 2 -5 -2 -23 -6 -38 -9 -15 -4 -25 -11 -22 -17 5 -7
11 -6 20 1 11 9 14 7 12 -9 0 -11 -5 -17 -9 -15 -4 3 -15 1 -23 -3 -10 -6 0
-9 29 -11 38 -1 43 1 39 17 -3 10 1 22 8 27 8 5 11 3 7 -7 -4 -11 8 -14 61
-14 36 0 72 -4 79 -9 8 -5 23 -4 39 3 14 6 28 9 31 7 3 -3 -4 -9 -14 -13 -26
-10 -174 -104 -174 -110 0 -2 5 -1 10 2 6 3 10 1 10 -5 0 -7 -7 -9 -16 -6 -8
3 -30 -2 -47 -12 l-32 -17 42 -3 c23 -2 51 1 61 7 10 5 30 8 43 5 19 -3 20 -3
5 4 -16 7 -12 13 33 41 l51 33 63 -23 c118 -43 131 -50 117 -59 -8 -5 7 -8 38
-8 68 -1 90 22 35 37 -21 6 -83 29 -137 51 -54 22 -104 37 -110 34 -6 -3 -2 2
8 10 11 9 24 16 30 16 5 0 7 3 3 6 -3 4 0 19 9 35 8 17 10 29 4 29 -5 0 -10
-6 -10 -12 0 -10 -3 -9 -9 1 -7 11 -10 9 -16 -8 -7 -24 -23 -28 -31 -7 -3 8
-13 12 -25 9 -10 -3 -16 -9 -14 -14 3 -4 12 -6 19 -3 8 3 17 1 21 -5 12 -20
-44 -12 -65 9 -16 16 -28 19 -67 14 -31 -3 -44 -2 -38 4 15 15 186 22 178 8
-3 -6 0 -5 8 1 7 7 26 13 42 13 24 0 27 -3 22 -22 -6 -17 -4 -20 9 -15 9 4 16
2 16 -3 0 -6 3 -9 8 -9 19 3 43 -2 39 -8 -3 -5 15 -9 40 -11 64 -3 88 -24 115
-98 12 -35 27 -64 31 -64 4 0 5 5 2 10 -3 6 1 10 10 10 9 0 14 -4 11 -8 -2 -4
8 -9 24 -10 16 -1 31 2 35 8 3 5 0 7 -9 4 -19 -7 -53 11 -37 20 6 4 11 2 11
-4 0 -6 8 -10 18 -9 9 2 26 -2 37 -8 29 -16 37 -16 46 -1 7 10 9 10 9 1 0 -8
14 -13 35 -13 21 0 35 5 35 12 0 9 3 9 12 0 14 -14 62 -16 53 -3 -3 5 4 12 15
16 12 4 18 11 14 18 -5 8 -3 8 6 0 12 -11 11 -15 -6 -28 -18 -14 -17 -14 14
-15 17 0 32 5 32 11 0 5 -5 7 -12 3 -7 -4 -8 -3 -4 4 10 17 26 15 26 -3 0 -8
4 -15 10 -15 11 0 4 22 -34 100 -26 54 -34 96 -16 85 6 -4 9 5 8 19 -1 15 -9
26 -16 26 -12 0 -12 -3 -2 -15 7 -8 9 -15 5 -15 -8 0 -44 42 -45 52 0 8 86 1
101 -8 5 -3 9 -1 9 4 0 4 57 8 128 9 70 0 119 -2 110 -4 -21 -5 -24 -39 -5
-46 6 -3 -5 -3 -25 -1 -20 2 -58 12 -85 23 -33 13 -55 16 -70 10 -13 -5 -23
-7 -23 -4 0 2 -12 -2 -27 -10 -15 -8 -29 -12 -33 -10 -3 2 -7 -6 -7 -17 -2
-16 1 -18 10 -9 6 6 18 11 26 11 14 0 14 -1 1 -10 -13 -8 -13 -10 1 -10 9 0
21 11 29 24 16 30 50 42 50 17 0 -13 10 -17 43 -19 23 -1 69 -4 102 -6 38 -3
53 -1 40 4 -17 7 -17 9 -2 9 9 1 17 8 17 17 0 12 3 14 13 6 7 -6 35 -13 62
-16 28 -3 60 -8 73 -12 13 -4 22 -2 22 5 0 6 -3 10 -7 10 -22 -4 -43 2 -43 12
0 5 4 8 9 4 5 -3 12 -2 15 3 2 4 -7 9 -20 10 -14 1 -23 -2 -20 -6 3 -5 -1 -9
-9 -9 -12 0 -12 3 -2 15 10 13 8 14 -10 8 -13 -4 -30 -3 -39 2 -12 6 30 10
123 11 l140 1 33 -52 c18 -29 33 -61 32 -71 0 -9 3 -15 8 -12 11 7 33 -32 26
-44 -3 -4 1 -17 10 -27 14 -18 15 -18 4 3 -16 34 -3 28 15 -6 14 -28 5 -55
-10 -31 -4 6 -11 8 -16 4 -5 -3 -30 2 -54 12 -42 16 -44 18 -30 34 16 18 38
21 51 7 4 -4 0 -7 -9 -7 -10 0 -17 -5 -17 -11 0 -5 5 -7 10 -4 6 3 10 1 10 -4
0 -6 8 -11 18 -10 9 0 12 3 6 5 -6 3 -10 20 -8 39 l2 35 -28 -15 c-37 -19 -50
-19 -50 1 0 8 -4 13 -9 9 -14 -8 -3 -58 15 -71 13 -10 13 -12 0 -17 -10 -4
-22 8 -36 36 -12 23 -31 57 -42 75 -11 17 -15 32 -10 32 5 0 12 -7 16 -15 3
-8 12 -15 21 -15 8 0 15 -6 15 -12 0 -10 3 -9 9 1 9 14 51 7 51 -10 0 -5 5 -9
10 -9 11 0 14 30 3 31 -5 0 -19 3 -33 6 -14 3 -35 6 -47 7 -11 1 -19 4 -16 8
2 5 -1 8 -7 8 -6 0 -8 5 -4 11 4 7 0 9 -14 5 -23 -8 -39 8 -21 20 8 4 9 3 5
-4 -4 -7 -2 -12 3 -12 6 0 11 5 11 11 0 5 5 7 12 3 6 -4 8 -3 4 4 -3 5 -3 12
1 15 5 2 3 2 -4 1 -7 -2 -15 1 -18 7 -4 5 -11 7 -16 4 -5 -4 -9 -2 -9 2 0 5
-10 9 -22 10 l-23 1 23 -10 c24 -12 28 -23 11 -34 -7 -4 -7 -9 -2 -13 12 -8
113 -180 113 -192 0 -5 4 -9 10 -9 5 0 7 6 4 14 -4 11 4 13 33 12 79 -5 79 -5
63 -16 -22 -14 5 -13 32 1 15 8 22 8 28 0 4 -7 25 -11 48 -10 22 2 39 6 36 11
-3 4 0 8 5 8 6 0 11 -4 11 -10 0 -5 7 -10 16 -10 13 0 14 3 5 14 -9 11 -6 15
14 20 14 4 25 13 25 21 0 25 18 17 35 -14 8 -17 20 -33 26 -37 15 -9 12 -5
-64 111 -64 97 -74 109 -64 83 3 -10 2 -20 -4 -23 -5 -4 -8 -1 -7 6 2 6 -4 14
-12 17 -8 2 -12 1 -8 -3 11 -12 -11 -35 -33 -35 -27 0 -24 20 4 21 20 1 20 1
-5 11 -22 7 -31 6 -44 -7 -19 -19 -22 -16 -57 45 l-26 45 141 3 c78 1 139 0
137 -3 -6 -5 -58 -13 -93 -14 -20 -1 -13 -16 7 -16 7 0 12 -7 12 -15 0 -10 12
-16 39 -18 29 -3 36 0 30 10 -6 11 -5 11 8 0 10 -8 31 -12 50 -9 33 4 33 4 -5
5 -23 1 -36 6 -32 12 3 6 1 10 -5 10 -6 0 -8 5 -4 11 4 8 9 7 15 -2 4 -8 23
-15 41 -16 315 -16 335 -16 335 0 0 9 -11 18 -24 22 -26 6 -27 26 -2 33 11 3
11 1 1 -6 -9 -6 -6 -12 13 -20 14 -7 24 -16 20 -21 -9 -16 15 -24 31 -10 8 6
16 10 18 8 1 -2 38 -50 81 -107 43 -56 79 -102 80 -102 1 0 2 36 3 80 2 68 -1
83 -17 99 -11 11 -29 18 -39 16 -10 -2 -25 1 -33 6 -11 8 -8 10 11 8 47 -3 57
0 38 12 -10 5 -24 9 -30 7 -7 -1 -24 4 -38 12 -23 12 -24 12 -11 -3 17 -21 8
-22 -12 -2 -18 18 -64 27 -71 14 -2 -5 -3 -4 -2 3 2 9 26 14 73 16 70 3 72 3
95 -28 12 -17 23 -35 23 -40 0 -5 3 -12 8 -16 4 -4 7 20 7 54 0 34 -4 62 -9
62 -9 0 -277 316 -294 346 -7 12 4 14 60 13 37 -1 60 -3 50 -6 -9 -2 -14 -9
-11 -15 5 -7 2 -8 -7 -3 -7 5 -27 10 -43 12 l-30 3 21 -22 c11 -13 18 -30 16
-38 -3 -12 -2 -12 5 -2 7 10 11 10 22 -3 11 -13 10 -15 -6 -9 -14 4 -11 -1 9
-20 15 -14 26 -26 23 -26 -3 0 2 -8 12 -18 13 -14 21 -16 31 -8 11 8 13 8 8
-1 -4 -6 -3 -14 2 -18 6 -3 8 -12 5 -19 -3 -8 7 -24 23 -36 15 -12 29 -26 29
-31 3 -22 5 -23 13 -10 6 9 11 10 15 2 4 -6 1 -11 -6 -11 -7 0 0 -9 17 -20 16
-11 32 -27 36 -37 4 -11 7 -1 7 25 0 26 -4 42 -11 42 -7 0 -6 4 2 9 12 8 11
13 -9 29 -27 22 -20 52 8 30 19 -14 -1 11 -68 87 l-45 50 65 5 c44 4 57 7 40
11 -24 6 -24 6 -2 8 18 1 22 7 22 35 0 19 -6 37 -12 39 -10 4 -10 6 0 6 6 1
12 6 12 12 0 5 -6 7 -12 3 -10 -6 -10 -4 0 7 21 22 14 29 -30 29 -32 0 -39 -3
-28 -10 10 -6 -12 -8 -65 -4 -44 2 -95 5 -113 6 -18 1 -28 4 -22 8 6 4 -2 17
-19 34 -21 20 -31 24 -36 15 -5 -7 -4 -10 2 -6 6 4 18 -2 28 -13 18 -20 18
-20 -13 -4 -33 16 -40 28 -21 39 7 5 3 16 -12 31 -12 13 -26 21 -31 18 -5 -3
-16 2 -23 12 -22 29 -18 39 8 18 22 -19 22 -19 -1 7 l-23 26 143 8 c82 4 149
12 157 18 12 9 13 9 7 0 -5 -10 7 -13 48 -13 l56 0 0 248 0 248 -112 -13 c-62
-6 -117 -12 -123 -13 -5 0 -4 -4 3 -9 9 -5 -1 -10 -30 -14 -52 -7 -118 -2
-127 10 -3 4 -76 9 -161 10 -85 2 -204 10 -265 19 -63 9 -157 15 -220 14 -60
-2 -141 -1 -180 1 -129 6 -359 4 -487 -4 -150 -10 -137 -30 -106 162 20 125
20 136 5 177 -11 29 -13 53 -8 71 5 16 11 78 15 138 9 141 21 211 53 310 25
76 29 118 32 307 1 42 4 48 36 68 19 12 51 24 72 27 86 13 139 110 127 232 -7
59 -9 64 -38 76 -30 13 -144 31 -119 19 7 -3 10 -11 7 -18 -3 -9 4 -12 25 -11
25 1 30 -2 33 -26 3 -16 -3 -37 -14 -51 -22 -28 -24 -84 -3 -92 11 -4 15 2 15
26 0 17 2 29 4 27 7 -8 18 -84 11 -77 -4 3 -15 -2 -26 -13 -24 -24 -39 -24
-39 -1 0 9 -5 24 -10 32 -9 13 -12 13 -21 -2 -5 -10 -16 -18 -24 -18 -8 0 -21
-15 -29 -32 -8 -18 -22 -44 -30 -58 -8 -14 -18 -34 -21 -45 -7 -18 -8 -17 -20
9 -7 17 -14 24 -17 16 -2 -8 -9 -10 -17 -6 -9 6 -9 11 0 22 6 7 15 11 20 9 8
-6 30 27 37 55 7 33 9 129 2 140 -4 7 -11 1 -17 -17 -18 -47 -43 -135 -43
-148 0 -7 -9 -24 -21 -39 -23 -30 -59 -35 -59 -8 0 24 16 46 28 38 14 -8 23
35 11 50 -6 7 -6 15 -1 18 5 3 12 24 16 46 3 22 11 40 17 40 6 0 8 8 5 18 -3
9 2 28 10 42 14 23 14 23 9 3 -8 -29 6 -30 23 -2 8 12 9 18 4 15 -18 -11 -20
18 -4 47 11 17 25 27 42 28 24 2 24 2 2 6 -18 3 -22 9 -16 21 34 81 69 203 62
216 -5 9 -5 23 1 34 5 9 11 39 12 66 2 36 -1 50 -14 57 -12 7 -14 15 -8 33 5
12 9 64 8 114 l0 91 -27 -19 c-15 -11 -31 -16 -35 -12 -5 4 -5 2 -2 -4 11 -18
-127 -66 -225 -78 -20 -3 -62 -13 -94 -22 -48 -15 -95 -18 -249 -17 -214 0
-235 3 -359 46 -125 43 -166 77 -188 152 -9 33 -17 50 -17 38z m21 -218 c3
-13 1 -22 -3 -19 -9 5 -13 44 -5 44 2 0 6 -11 8 -25z m908 -14 c0 -13 -26 -21
-65 -21 -42 0 -55 17 -18 23 52 8 83 7 83 -2z m-337 -38 c-7 -2 -21 -2 -30 0
-10 3 -4 5 12 5 17 0 24 -2 18 -5z m70 0 c-7 -2 -19 -2 -25 0 -7 3 -2 5 12 5
14 0 19 -2 13 -5z m-86 -19 c-3 -3 -12 -4 -19 -1 -8 3 -5 6 6 6 11 1 17 -2 13
-5z m7 -29 c3 -8 1 -15 -3 -15 -5 0 -11 7 -15 15 -3 8 -1 15 3 15 5 0 11 -7
15 -15z m-9 -45 c-3 -5 1 -10 9 -10 9 0 16 -4 16 -10 0 -5 -3 -10 -7 -10 -17
0 -30 16 -37 44 -6 26 -6 27 9 12 9 -9 13 -20 10 -26z m-74 -18 c-13 -2 -27 0
-32 5 -6 6 3 7 23 4 28 -4 29 -6 9 -9z m-781 -522 c0 -5 -2 -10 -4 -10 -3 0
-8 5 -11 10 -3 6 -1 10 4 10 6 0 11 -4 11 -10z m180 -80 c0 -10 -4 -22 -10
-25 -6 -4 -10 7 -10 25 0 18 4 29 10 25 6 -3 10 -15 10 -25z m1555 -1392 l-39
-21 89 -24 c150 -39 140 -39 217 -2 l70 34 -29 12 -28 13 28 -3 c16 -2 40 -17
58 -38 17 -18 28 -29 25 -22 -8 14 10 27 18 14 4 -5 1 -13 -5 -16 -5 -4 -8
-13 -5 -21 6 -15 -13 -17 -142 -16 -34 1 -60 -2 -58 -6 3 -5 0 -14 -5 -22 -8
-12 -9 -11 -7 5 3 19 -3 20 -92 20 -52 0 -101 4 -109 9 -10 6 -12 6 -7 -2 5
-8 0 -12 -13 -12 -12 0 -21 5 -21 11 0 5 4 8 9 5 5 -3 11 1 15 9 3 8 -7 26
-23 42 -39 40 -30 53 37 53 l57 -1 -40 -21z m-320 -52 c19 -32 35 -60 35 -61
0 -1 -11 -5 -25 -7 -13 -3 -22 -1 -19 3 11 19 -22 8 -36 -11 -10 -14 -25 -20
-50 -19 -19 0 -30 3 -23 5 7 3 10 18 6 39 -5 31 -2 35 33 54 l39 20 -32 11
c-39 14 -35 29 7 26 25 -2 36 -12 65 -60z m477 42 c20 -23 20 -39 -2 -46 -7
-3 -10 0 -6 6 4 6 -1 23 -10 37 -20 31 -8 33 18 3z m1085 16 c-3 -3 -12 -4
-19 -1 -8 3 -5 6 6 6 11 1 17 -2 13 -5z m-1386 -59 l10 -20 -16 20 c-9 11 -21
29 -26 40 l-10 20 16 -20 c9 -11 21 -29 26 -40z m-139 -22 c-3 -8 5 -13 19
-13 17 0 20 -3 12 -11 -16 -16 -28 -6 -58 49 l-26 47 29 -30 c15 -16 26 -36
24 -42z m353 57 c3 -5 2 -10 -4 -10 -5 0 -13 5 -16 10 -3 6 -2 10 4 10 5 0 13
-4 16 -10z m35 6 c0 -3 -4 -8 -10 -11 -5 -3 -10 -1 -10 4 0 6 5 11 10 11 6 0
10 -2 10 -4z m128 -3 c-10 -2 -26 -2 -35 0 -10 3 -2 5 17 5 19 0 27 -2 18 -5z
m303 -10 c13 -16 12 -17 -3 -4 -17 13 -22 21 -14 21 2 0 10 -8 17 -17z m216
-12 c45 -12 86 -21 90 -21 5 0 1 -5 -7 -10 -20 -13 -147 -13 -155 0 -4 6 -10
8 -15 5 -10 -6 -23 12 -27 38 -2 13 2 17 14 13 10 -2 55 -14 100 -25z m117 20
c4 -5 -3 -7 -14 -4 -23 6 -26 13 -6 13 8 0 17 -4 20 -9z m-3365 -48 c-1 -27
-4 -59 -8 -73 -5 -16 -3 -31 6 -41 11 -13 11 -16 -2 -16 -8 0 -13 3 -11 6 2 3
-2 12 -10 19 -8 7 -14 8 -14 3 0 -7 -9 -7 -27 0 -17 6 -55 8 -97 4 -38 -4
-118 -7 -177 -7 -72 0 -107 -4 -102 -11 4 -6 1 -7 -6 -2 -9 5 -11 19 -6 44 11
65 15 71 43 70 23 0 24 -2 8 -8 -25 -10 -17 -14 86 -49 l84 -29 105 37 104 38
-39 16 c-21 9 -43 16 -49 16 -25 0 11 19 43 23 74 8 70 11 69 -40z m32 30
c-11 -5 -11 -7 0 -14 10 -6 11 -9 2 -9 -7 0 -13 -9 -13 -20 0 -11 5 -20 11
-20 5 0 8 -4 5 -9 -3 -5 2 -11 12 -13 10 -3 19 -13 19 -22 0 -18 -22 -22 -33
-4 -4 6 -3 8 4 4 6 -3 14 -1 18 5 5 9 -2 10 -25 6 -18 -4 -30 -3 -27 2 3 5 7
29 7 55 2 35 6 46 18 45 12 0 13 -2 2 -6z m334 -3 c15 -1 12 -5 -13 -19 l-33
-17 101 -31 101 -32 100 38 100 37 -48 16 -48 15 52 1 c57 1 50 10 69 -87 3
-18 0 -32 -7 -37 -8 -4 -9 -3 -5 4 5 9 -8 12 -44 12 -31 0 -49 -4 -45 -10 3
-6 -1 -7 -9 -4 -9 3 -16 2 -16 -3 0 -6 15 -15 33 -21 24 -7 27 -10 10 -11 -32
-2 -53 9 -54 28 0 10 -2 11 -6 4 -2 -7 -9 -13 -14 -13 -6 0 -8 4 -5 9 3 5 -1
11 -9 15 -10 4 -15 -1 -15 -14 0 -13 7 -20 20 -20 11 0 20 -4 20 -9 0 -4 -8
-8 -17 -8 -41 0 -54 -4 -48 -13 4 -6 12 -10 18 -9 31 4 80 -2 73 -8 -8 -8 -76
-4 -91 5 -18 12 -46 12 -66 2 -10 -6 -19 -7 -19 -3 0 4 -22 6 -50 5 -27 -2
-48 -8 -45 -12 3 -4 -4 -6 -15 -3 -13 3 -20 0 -20 -8 0 -10 -2 -11 -8 -2 -4 7
-13 9 -21 4 -41 -25 30 -27 299 -8 59 5 62 6 57 15 -3 4 16 7 41 7 26 0 52 3
58 7 6 5 11 1 11 -7 0 -8 -3 -13 -6 -11 -3 2 -15 -1 -26 -5 -14 -7 -7 -8 24
-5 25 3 39 1 32 -3 -15 -9 -7 -103 11 -131 7 -11 8 -6 4 17 -5 31 -5 32 14 16
12 -10 15 -20 9 -23 -5 -4 -7 -13 -4 -22 5 -12 -4 -15 -41 -16 -25 -1 -51 -5
-57 -9 -5 -3 -58 -7 -116 -9 -133 -4 -174 -9 -179 -23 -2 -7 -9 -5 -19 4 -11
11 -28 14 -64 11 -30 -3 -51 -1 -55 6 -4 7 -3 8 4 4 7 -4 12 -2 12 4 0 10 -42
7 -92 -7 -10 -2 -18 0 -18 6 0 6 5 11 11 11 5 0 7 5 4 10 -10 16 -21 11 -22
-11 -1 -12 6 -30 16 -40 18 -20 18 -20 24 1 3 11 13 20 24 19 16 -1 16 -2 1
-6 -10 -2 -18 -10 -18 -17 0 -10 10 -12 38 -7 39 7 108 6 155 -2 15 -2 30 0
33 5 3 5 16 8 27 6 12 -1 28 1 35 6 7 4 16 5 19 2 4 -3 0 -6 -8 -7 -8 0 -6 -4
6 -9 16 -8 15 -9 -10 -6 -16 2 -36 -1 -42 -7 -9 -6 -13 -5 -13 4 0 11 -2 11
-9 1 -10 -16 -273 -23 -263 -7 3 6 -2 4 -11 -4 -15 -12 -17 -11 -17 8 0 17 -6
21 -30 21 -23 0 -30 -4 -30 -20 0 -18 -7 -20 -57 -20 -36 0 -53 4 -45 9 11 7
11 9 0 13 -7 3 -14 18 -16 34 -3 35 -10 42 -19 18 -3 -10 -11 -22 -17 -26 -7
-5 -5 -8 5 -8 9 0 19 -8 21 -18 4 -14 -1 -18 -26 -19 -28 -1 -29 -1 -6 6 24 7
24 7 5 18 -17 10 -22 8 -31 -8 -10 -19 -11 -19 -25 -3 -12 16 -12 17 1 9 12
-6 13 -5 3 5 -11 12 -16 11 -29 -6 -8 -10 -13 -14 -10 -8 9 17 -32 24 -48 8
-12 -11 -15 -11 -20 1 -7 18 -37 19 -55 3 -11 -11 -12 -10 -6 0 5 10 -1 12
-32 6 -21 -4 -41 -12 -45 -18 -10 -15 9 -21 25 -8 8 7 16 6 24 -3 10 -10 4
-14 -27 -17 -32 -3 -37 -1 -35 14 3 11 -2 18 -12 18 -10 0 -13 -6 -9 -16 3 -8
2 -13 -3 -9 -5 3 -11 2 -14 -2 -2 -5 -2 -2 -1 5 5 18 -36 31 -64 21 -30 -11
-35 -11 -27 1 3 6 1 10 -4 10 -6 0 -11 -7 -11 -16 0 -14 -1 -14 -16 0 -8 9
-19 16 -22 16 -14 0 -10 64 5 78 20 21 24 11 12 -32 -6 -21 -8 -40 -6 -43 5
-5 37 125 37 151 0 8 -4 16 -10 18 -5 2 2 8 15 15 14 6 22 7 19 1 -4 -6 30 -8
90 -7 113 2 148 8 139 22 -4 6 -1 7 8 2 7 -5 56 -10 109 -11 60 -2 88 0 75 6
-25 11 1 11 35 0 17 -5 19 -8 8 -9 -15 -1 -18 -11 -18 -58 0 -67 10 -66 12 1
1 46 11 60 22 31 3 -8 18 -15 33 -16 29 -1 25 -3 -17 -13 -17 -3 -26 -13 -27
-26 -1 -11 2 -20 8 -20 5 0 9 -7 9 -15 0 -8 -4 -15 -10 -15 -12 0 -13 -30 -2
-48 10 -15 72 3 72 21 0 9 2 9 8 0 6 -10 27 -11 75 -4 12 2 8 111 -4 111 -8 0
-8 4 -2 13 17 21 13 85 -6 90 -9 3 -1 5 17 6 18 0 31 -3 28 -8 -7 -11 74 -6
139 10 28 7 83 11 123 10 43 -1 72 2 72 8 0 6 8 8 18 5 16 -5 16 -4 -1 9 -14
11 -15 16 -5 20 7 4 -53 5 -134 4 -121 -2 -145 0 -136 11 9 11 6 12 -13 9 -13
-2 -18 -2 -11 0 22 8 13 26 -10 19 -13 -3 -31 -6 -40 -6 -22 0 -23 -23 -2 -44
10 -11 11 -16 3 -16 -7 0 -10 -2 -7 -5 7 -7 39 5 34 14 -2 3 18 6 44 6 26 0
46 -3 43 -7 -2 -5 -11 -8 -19 -8 -9 0 -12 -5 -8 -12 4 -6 3 -9 -2 -6 -5 3 -52
2 -104 -3 -93 -9 -164 -4 -155 10 2 4 18 6 35 3 25 -3 29 -1 24 12 -4 11 -1
16 10 16 9 0 16 8 16 19 0 13 9 20 30 25 27 5 30 10 32 43 l1 38 4 -36 4 -36
47 5 c26 3 50 9 53 15 4 5 9 1 12 -9 2 -10 5 1 6 25 1 40 3 43 24 37 12 -3 31
-6 42 -6z m701 -5 c-17 -13 -18 -15 -3 -15 13 0 17 -9 17 -35 0 -45 -25 -47
-34 -4 -9 48 -8 57 12 62 28 7 28 7 8 -8z m1387 -25 c-3 -3 -8 1 -10 8 -3 6
-9 10 -14 6 -10 -6 -12 9 -2 19 3 4 12 -1 19 -11 7 -9 10 -19 7 -22z m-2331
18 c-9 -9 -15 -9 -24 0 -9 9 -7 12 12 12 19 0 21 -3 12 -12z m398 2 c0 -5 -1
-11 -2 -12 -1 -2 4 -13 11 -25 10 -19 9 -23 -4 -23 -8 0 -16 6 -16 13 -1 6 -3
22 -4 35 -1 12 2 22 6 22 5 0 9 -4 9 -10z m1124 -6 c3 -8 2 -12 -4 -9 -6 3
-10 10 -10 16 0 14 7 11 14 -7z m-1177 -18 c-12 -13 -47 -10 -47 4 0 5 10 6
22 2 14 -3 19 -1 14 6 -5 8 -2 10 8 6 12 -4 12 -9 3 -18z m307 -8 c7 -5 7 -11
-3 -20 -10 -10 -12 -10 -7 0 4 6 2 12 -3 12 -6 0 -11 10 -10 23 0 15 2 17 6 7
3 -8 11 -18 17 -22z m2643 12 c3 -11 9 -20 14 -20 5 0 6 8 2 18 -3 9 -3 14 1
11 4 -4 8 -16 11 -27 5 -27 -23 -18 -35 12 -7 17 -9 18 -9 4 -1 -25 -31 -23
-31 2 0 14 7 20 21 20 12 0 23 -8 26 -20z m-3632 0 c-3 -5 0 -10 7 -11 9 0 10
-2 1 -5 -7 -3 -9 -12 -6 -20 3 -9 -1 -14 -12 -14 -11 0 -15 5 -11 15 3 8 1 15
-5 15 -5 0 -4 7 3 15 15 16 32 20 23 5z m828 3 c-7 -2 -19 -2 -25 0 -7 3 -2 5
12 5 14 0 19 -2 13 -5z m1667 -3 c0 -5 -6 -10 -14 -10 -8 0 -18 5 -21 10 -3 6
3 10 14 10 12 0 21 -4 21 -10z m-2540 -14 c0 -8 -60 -12 -72 -4 -8 4 4 8 30 8
23 0 42 -2 42 -4z m128 -3 c-10 -2 -28 -2 -40 0 -13 2 -5 4 17 4 22 1 32 -1
23 -4z m1059 -15 c-3 -8 -6 -5 -6 6 -1 11 2 17 5 13 3 -3 4 -12 1 -19z m1458
12 c-4 -7 25 -34 46 -43 8 -3 4 -6 -9 -6 -13 -1 -30 6 -38 14 -9 8 -12 15 -8
15 3 0 1 6 -5 13 -8 10 -7 14 4 14 8 0 12 -3 10 -7z m725 -20 c0 -6 -5 -10
-12 -10 -6 0 -8 3 -5 7 4 3 -1 12 -11 20 -15 13 -15 13 6 3 12 -6 22 -15 22
-20z m-2073 -2 c-3 -8 -6 -5 -6 6 -1 11 2 17 5 13 3 -3 4 -12 1 -19z m-1612
-28 c-5 -27 -3 -40 5 -40 6 0 8 5 4 13 -5 8 -2 8 9 -2 9 -7 17 -16 17 -19 0
-3 -3 -2 -6 1 -4 4 -15 -3 -26 -15 -26 -30 -30 -20 -17 45 13 65 24 78 14 17z
m110 -2 c-7 -28 -9 -30 -15 -13 -4 12 -3 23 4 27 6 4 7 8 3 8 -5 0 -5 5 -2 11
12 19 17 1 10 -33z m2750 24 c-3 -3 -11 0 -18 7 -9 10 -8 11 6 5 10 -3 15 -9
12 -12z m19 -20 c-20 -2 -41 1 -45 5 -5 5 7 7 28 5 32 -4 35 -2 30 14 -6 17
-6 17 8 -1 15 -19 14 -20 -21 -23z m876 23 c0 -2 -9 -3 -19 -2 -11 0 -18 5
-15 9 4 6 34 0 34 -7z m-3083 -1 c-3 -3 -12 -4 -19 -1 -8 3 -5 6 6 6 11 1 17
-2 13 -5z m733 -20 c0 -2 -16 -3 -35 -2 -20 1 -31 4 -25 8 11 7 60 2 60 -6z
m790 -16 c0 -5 -23 -8 -52 -8 -28 0 -48 3 -44 7 4 4 22 6 41 5 20 -2 35 1 34
5 -3 20 2 27 11 13 5 -8 10 -18 10 -22z m-665 2 c18 -19 17 -20 -1 -20 -13 0
-20 7 -21 20 -1 11 0 20 1 20 2 0 11 -9 21 -20z m-70 -16 c16 -25 16 -26 -2
-20 -10 3 -49 6 -86 7 -38 1 -64 5 -58 9 6 3 37 6 69 4 31 -1 46 1 32 4 l-25
5 25 8 c14 4 26 7 26 8 1 1 9 -11 19 -25z m2275 -9 c0 -21 -5 -19 -25 11 -16
25 -16 25 4 14 12 -6 21 -17 21 -25z m-815 17 c6 -4 17 -16 25 -27 14 -19 14
-20 -6 -2 -11 9 -28 17 -38 17 -14 0 -51 -15 -64 -25 -2 -2 17 -39 42 -83 25
-43 46 -82 46 -85 0 -4 -29 -7 -65 -7 -41 0 -65 -4 -65 -11 0 -8 -4 -8 -13 0
-8 6 -30 10 -50 9 -28 -1 -36 -5 -35 -17 2 -9 8 -20 13 -24 6 -5 4 -7 -4 -5
-8 2 -15 12 -17 22 -4 25 -11 31 -26 18 -17 -13 -88 -11 -88 2 1 32 16 38 76
25 l59 -12 80 41 c59 30 73 41 55 42 -15 0 -30 4 -35 8 -6 5 -41 17 -80 27
-38 10 -81 22 -95 28 -23 9 -21 11 30 21 30 7 65 8 78 4 18 -6 22 -4 20 9 -2
9 4 18 12 20 13 4 13 3 0 -7 -12 -8 -6 -10 25 -6 22 2 54 9 70 14 38 13 38 13
50 4z m195 4 c0 -2 -7 -6 -15 -10 -8 -3 -15 -1 -15 4 0 6 7 10 15 10 8 0 15
-2 15 -4z m540 -11 c11 -13 10 -14 -4 -9 -9 3 -16 10 -16 15 0 13 6 11 20 -6z
m-643 -3 c7 -4 9 -13 5 -19 -6 -9 -11 -6 -20 7 -13 21 -6 26 15 12z m48 -1
c-19 -8 -19 -8 0 -19 11 -6 15 -12 10 -12 -13 0 -35 20 -35 32 0 4 10 8 23 7
20 0 21 -1 2 -8z m-2108 -7 c-3 -3 -12 -4 -19 -1 -8 3 -5 6 6 6 11 1 17 -2 13
-5z m1259 -19 c1 -8 -4 -11 -12 -8 -15 6 -18 16 -7 26 8 9 16 1 19 -18z m1079
15 c4 -6 60 -10 135 -10 l128 0 28 -32 c15 -18 31 -32 36 -30 5 1 7 -2 4 -7
-7 -11 43 -73 54 -66 4 3 13 -1 19 -9 9 -10 7 -17 -6 -27 -16 -13 -17 -12 -5
3 8 10 9 19 3 22 -5 3 -11 1 -13 -4 -3 -10 -178 -23 -308 -24 -81 0 -151 7
-157 17 -3 6 -1 7 5 3 20 -12 13 3 -28 64 -58 85 -58 87 -10 86 22 -1 40 3 40
8 0 4 12 5 26 2 17 -5 23 -3 19 4 -3 5 1 10 9 10 8 0 18 -4 21 -10z m-2962
-21 c4 -3 -9 -6 -30 -6 -21 0 -28 2 -15 4 12 2 22 9 22 15 0 7 3 7 8 2 4 -5
11 -11 15 -15z m72 -2 c15 -4 14 -5 -7 -6 -21 -1 -28 4 -28 17 0 11 3 13 8 6
4 -7 16 -14 27 -17z m1750 14 c-18 -7 -55 -4 -55 5 0 2 17 4 38 3 28 0 32 -2
17 -8z m1984 -4 c9 -11 2 -12 -38 -4 -45 10 -52 8 -105 -23 -32 -18 -54 -36
-49 -40 4 -4 26 -12 48 -17 22 -6 77 -21 122 -33 l81 -22 38 26 c35 23 39 24
66 10 17 -9 36 -13 44 -10 8 3 13 2 9 -3 -3 -5 1 -11 7 -13 7 -3 -6 -8 -30
-12 -54 -8 -361 -13 -357 -5 2 3 -23 34 -57 70 -33 35 -52 54 -42 41 16 -21
16 -22 1 -16 -9 3 -17 9 -18 13 -7 55 -18 51 131 51 102 0 140 -3 149 -13z
m-4065 -13 c3 -8 2 -12 -4 -9 -6 3 -10 10 -10 16 0 14 7 11 14 -7z m419 -1
c-7 -2 -21 -2 -30 0 -10 3 -4 5 12 5 17 0 24 -2 18 -5z m977 -14 c0 -19 -1
-19 -17 -4 -10 11 -27 15 -45 13 -16 -3 -31 -1 -34 4 -3 4 18 8 45 8 45 0 51
-2 51 -21z m85 11 c4 -6 2 -17 -4 -24 -6 -7 -9 -28 -6 -47 4 -29 3 -30 -4 -9
-19 54 -8 116 14 80z m1324 -9 c11 -11 17 -22 14 -25 -4 -3 -1 -6 5 -6 7 0 11
-3 11 -7 -4 -23 2 -33 14 -26 24 15 77 31 77 22 0 -5 -1 -9 -2 -9 -2 0 -20 -6
-41 -14 -33 -11 -37 -15 -25 -27 15 -17 21 -39 11 -39 -8 0 -95 150 -87 150 2
0 13 -9 23 -19z m752 -19 c-7 -2 -23 5 -35 17 l-21 22 35 -17 c20 -10 29 -19
21 -22z m-686 18 c-3 -5 -12 -10 -18 -10 -7 0 -6 4 3 10 19 12 23 12 15 0z
m148 -18 c41 -8 47 -8 43 5 -8 20 12 6 24 -17 10 -18 8 -19 -17 -9 -15 5 -41
9 -58 8 -17 -2 -36 0 -43 5 -6 4 -18 4 -24 0 -10 -6 -10 -5 -1 8 7 8 9 19 5
24 -4 4 0 3 8 -3 8 -6 37 -15 63 -21z m687 3 c13 -14 21 -25 18 -25 -2 0 -15
11 -28 25 -13 14 -21 25 -18 25 2 0 15 -11 28 -25z m340 -5 c0 -6 8 -10 17
-10 9 0 13 -3 10 -7 -4 -3 1 -12 11 -19 9 -7 14 -15 10 -19 -3 -4 -16 3 -27
14 -12 12 -26 21 -33 21 -6 0 -8 3 -5 7 4 3 -1 15 -10 26 -17 19 -17 20 5 8
12 -6 22 -16 22 -21z m-3430 -1 c0 -11 -5 -17 -10 -14 -6 4 -8 11 -5 16 4 5
-9 9 -27 8 -27 0 -30 -2 -13 -9 19 -8 19 -9 -2 -9 -13 -1 -23 3 -23 7 0 5 -14
9 -31 10 -67 2 -38 12 34 12 71 0 77 -2 77 -21z m411 3 c-7 -2 -18 1 -23 6 -8
8 -4 9 13 5 13 -4 18 -8 10 -11z m1021 9 c-11 -6 -10 -19 6 -67 11 -32 23 -67
27 -76 6 -15 1 -18 -32 -18 l-39 0 4 40 c2 22 7 40 11 40 4 0 6 13 3 30 -5 36
3 60 20 60 10 0 10 -2 0 -9z m1948 -1 c0 -5 -8 -11 -17 -11 -10 -1 -4 -5 12
-9 27 -7 26 -8 -15 -9 l-45 -1 30 20 c35 23 35 23 35 10z m-3754 -15 c-6 -7
-13 -9 -16 -5 -3 4 -12 9 -20 12 -8 3 -1 6 16 5 25 0 29 -3 20 -12z m58 3 c-3
-4 -11 -5 -19 -1 -21 7 -19 12 4 10 11 0 18 -5 15 -9z m-314 -10 c0 -5 -11 -6
-24 -2 -26 6 -66 -24 -66 -48 0 -9 4 -8 10 2 6 9 10 10 10 3 0 -7 -7 -16 -17
-21 -10 -6 -14 -16 -10 -26 4 -11 12 -14 19 -10 10 6 11 5 1 -8 -7 -8 -9 -19
-5 -23 4 -5 1 -5 -6 -1 -7 4 -10 12 -7 17 4 5 1 9 -6 9 -6 0 -9 -8 -6 -20 3
-10 1 -20 -5 -22 -5 -2 -6 -11 -3 -19 4 -11 14 -15 33 -11 15 3 24 2 21 -2 -4
-4 -21 -8 -38 -8 -19 -1 -30 -5 -26 -12 3 -6 8 -19 11 -29 7 -18 36 -19 63 -3
10 6 12 5 7 -2 -4 -7 -1 -12 9 -12 9 0 14 4 11 8 -8 13 18 10 31 -3 9 -9 -8
-14 -70 -18 -45 -3 -84 -4 -86 -2 -2 2 11 65 29 140 l33 136 43 -2 c24 -2 44
-6 44 -11z m95 2 c13 -6 15 -9 5 -9 -8 0 -22 4 -30 9 -18 12 -2 12 25 0z m883
3 c-10 -2 -28 -2 -40 0 -13 2 -5 4 17 4 22 1 32 -1 23 -4z m1105 -13 c9 -11
13 -20 7 -20 -5 0 -14 9 -20 20 -6 11 -9 20 -8 20 2 0 11 -9 21 -20z m-1863
-6 c0 -2 -21 -4 -46 -4 -25 0 -43 4 -40 8 4 7 86 4 86 -4z m2384 5 c-3 -6 -3
-14 2 -18 5 -3 15 -17 22 -29 12 -21 11 -23 -3 -20 -9 1 -15 7 -15 12 1 5 -4
12 -12 17 -7 5 -13 13 -13 19 0 6 -7 15 -15 20 -12 8 -9 10 13 10 18 0 26 -4
21 -11z m1267 -31 c26 -34 27 -38 8 -20 -14 12 -29 19 -34 15 -4 -5 -6 -1 -2
8 3 9 0 22 -6 28 -6 6 -8 11 -5 11 4 0 21 -19 39 -42z m277 35 c-10 -2 -26 -2
-35 0 -10 3 -2 5 17 5 19 0 27 -2 18 -5z m-2821 -48 c-10 -10 -13 -10 -19 4
-14 34 -9 45 11 27 16 -14 17 -21 8 -31z m-756 17 c-7 -2 -18 1 -23 6 -8 8 -4
9 13 5 13 -4 18 -8 10 -11z m3049 -14 c0 -12 -6 -9 -26 13 -19 22 -19 22 4 8
12 -8 22 -17 22 -21z m150 7 c13 -14 21 -25 18 -25 -2 0 -15 11 -28 25 -13 14
-21 25 -18 25 2 0 15 -11 28 -25z m-3775 5 c7 -12 -2 -12 -30 0 -19 8 -19 9 2
9 12 1 25 -3 28 -9z m2570 0 c3 -5 1 -10 -4 -10 -6 0 -11 5 -11 10 0 6 2 10 4
10 3 0 8 -4 11 -10z m138 3 c-13 -2 -33 -2 -45 0 -13 2 -3 4 22 4 25 0 35 -2
23 -4z m439 -26 c10 -19 9 -20 -4 -10 -8 7 -18 10 -21 7 -3 -4 -5 3 -4 14 1
24 12 20 29 -11z m-2509 16 c-7 -2 -21 -2 -30 0 -10 3 -4 5 12 5 17 0 24 -2
18 -5z m2392 -3 c3 -5 1 -10 -4 -10 -6 0 -11 5 -11 10 0 6 2 10 4 10 3 0 8 -4
11 -10z m-3009 -35 c-6 -22 -9 -25 -22 -14 -13 10 -12 14 2 30 21 24 28 18 20
-16z m2659 25 c-3 -5 -12 -10 -18 -10 -7 0 -6 4 3 10 19 12 23 12 15 0z
m-2032 -7 c-7 -2 -21 -2 -30 0 -10 3 -4 5 12 5 17 0 24 -2 18 -5z m1462 -14
c-4 -5 -2 -9 3 -9 5 0 9 -7 9 -16 0 -14 -2 -14 -14 2 -15 21 -18 48 -3 39 6
-4 8 -11 5 -16z m-577 -81 c15 -15 16 -41 0 -36 -12 4 -38 89 -37 118 1 8 6
-4 12 -27 7 -23 18 -48 25 -55z m-1700 57 c-3 -3 -9 2 -12 12 -6 14 -5 15 5 6
7 -7 10 -15 7 -18z m802 -19 c0 -3 -9 -3 -20 -1 -11 2 -22 0 -25 -6 -4 -5 -13
-9 -22 -9 -13 0 -13 3 -3 15 7 8 19 15 27 15 10 0 13 6 8 18 -5 13 -1 12 14
-5 12 -12 21 -24 21 -27z m3095 35 c3 -5 2 -12 -3 -15 -5 -3 -9 1 -9 9 0 17 3
19 12 6z m116 -10 c0 8 5 3 10 -10 7 -18 15 -22 33 -19 14 3 31 1 38 -3 8 -6
-4 -9 -33 -9 -38 0 -50 5 -75 31 l-29 32 28 -18 c21 -13 27 -14 28 -4z m-770
-5 c-3 -17 42 -45 76 -49 36 -3 36 -4 -9 -5 -41 -2 -49 2 -67 27 -11 15 -18
31 -14 35 7 6 15 2 14 -8z m-3102 -5 c14 -9 9 -14 -24 -24 -19 -7 -19 -6 -2 7
14 10 15 15 5 19 -7 3 -8 6 -3 6 6 0 16 -3 24 -8z m4061 -18 c14 -7 20 -13 14
-13 -12 0 -74 29 -74 35 0 5 27 -5 60 -22z m-240 -8 c0 -3 -17 -4 -37 -4 -24
1 -30 3 -15 6 12 2 19 9 16 15 -4 6 2 6 15 -1 11 -7 21 -14 21 -16z m157 3
c-3 -8 -6 -5 -6 6 -1 11 2 17 5 13 3 -3 4 -12 1 -19z m263 18 c0 -2 -7 -7 -16
-10 -8 -3 -12 -2 -9 4 6 10 25 14 25 6z m-3537 -13 c-7 -2 -19 -2 -25 0 -7 3
-2 5 12 5 14 0 19 -2 13 -5z m2782 -2 c3 -5 0 -13 -6 -17 -7 -4 -9 -3 -5 4 3
5 0 13 -6 15 -9 4 -10 6 -1 6 6 1 14 -3 18 -8z m-2067 -8 c-10 -2 -18 -9 -18
-14 0 -6 -5 -7 -11 -3 -14 8 8 24 31 23 11 -1 10 -3 -2 -6z m1566 -8 c20 -5
31 -4 37 6 7 12 11 11 26 -4 17 -18 16 -18 -52 -15 -39 2 -77 8 -85 12 -8 5
-12 6 -8 1 9 -9 -9 -35 -23 -35 -5 0 -9 5 -9 11 0 5 5 7 10 4 6 -3 10 2 10 13
0 15 6 18 33 17 17 -2 45 -6 61 -10z m-255 -8 c8 -10 7 -14 -4 -14 -8 0 -12 4
-9 8 2 4 -2 10 -8 12 -8 4 -9 6 -2 6 6 1 17 -5 23 -12z m148 7 c-3 -3 -12 -4
-19 -1 -8 3 -5 6 6 6 11 1 17 -2 13 -5z m-1397 -33 c0 -11 6 -21 13 -24 6 -2
-13 -5 -44 -6 -30 -1 -66 -3 -78 -6 -13 -2 -21 -2 -17 2 3 3 0 13 -6 22 -9 11
-6 10 9 -2 15 -13 23 -15 28 -7 4 7 22 10 40 8 19 -2 31 0 29 4 -7 10 4 28 17
28 5 0 9 -9 9 -19z m2509 2 c0 -11 -3 -13 -6 -5 -2 6 -16 12 -29 12 -18 0 -23
-4 -17 -12 4 -7 8 -20 8 -28 0 -8 7 -15 15 -15 8 0 16 -6 16 -12 1 -7 2 -18 3
-24 0 -5 6 -7 13 -3 6 4 8 3 5 -3 -7 -11 16 -36 25 -28 3 3 11 -2 19 -12 9
-11 10 -14 2 -9 -7 4 -13 2 -13 -3 0 -6 3 -11 8 -11 4 0 16 -13 27 -29 10 -16
23 -27 29 -24 5 4 6 1 1 -7 -6 -10 -4 -12 9 -7 10 4 15 3 11 -3 -7 -12 25 -29
45 -23 13 4 13 3 0 -6 -21 -15 -2 -27 20 -13 25 15 33 15 24 0 -4 -6 -3 -8 2
-5 6 3 16 2 24 -4 10 -6 -2 -9 -38 -9 -61 0 -47 -12 -203 178 l-100 122 50 0
c42 0 51 -3 50 -17z m48 2 c0 -8 -4 -12 -9 -9 -5 3 -6 10 -3 15 9 13 12 11 12
-6z m203 11 c0 -3 -4 -8 -10 -11 -5 -3 -10 -1 -10 4 0 6 5 11 10 11 6 0 10 -2
10 -4z m-3655 -16 c3 -5 1 -10 -4 -10 -6 0 -11 5 -11 10 0 6 2 10 4 10 3 0 8
-4 11 -10z m3092 3 c-4 -3 1 -12 11 -20 15 -13 15 -13 -6 -3 -19 9 -23 30 -5
30 4 0 3 -3 0 -7z m123 2 c0 -7 -30 -13 -34 -7 -3 4 4 9 15 9 10 1 19 0 19 -2z
m67 -47 c2 -17 0 -19 -7 -8 -5 8 -6 18 -4 22 3 5 -2 11 -10 14 -9 3 -16 11
-16 17 0 20 36 -23 37 -45z m-2639 33 c8 -5 0 -7 -22 -7 -19 1 -32 4 -29 8 6
10 35 10 51 -1z m1856 -16 c9 -14 15 -25 13 -25 -2 0 -13 11 -25 25 -12 14
-18 25 -13 25 5 0 16 -11 25 -25z m146 17 c0 -4 -17 -6 -37 -4 -30 3 -35 2
-26 -8 6 -7 9 -19 6 -28 -5 -11 -3 -13 7 -7 9 5 11 4 6 -3 -9 -15 18 -55 29
-44 5 4 5 1 1 -5 -4 -7 -2 -13 4 -13 6 0 9 -4 6 -8 -7 -12 29 -63 39 -55 4 5
6 3 2 -2 -3 -6 1 -21 9 -35 7 -14 13 -19 14 -11 0 11 3 11 15 1 8 -6 13 -17
12 -23 -1 -7 6 -11 16 -11 14 2 15 -1 6 -12 -17 -21 19 -18 44 4 11 9 17 12
14 5 -4 -6 0 -16 10 -22 14 -8 6 -10 -37 -11 -62 0 -53 -10 -159 165 -29 50
-57 92 -61 95 -3 3 -9 13 -13 23 -6 15 0 17 43 17 28 0 50 -4 50 -8z m47 -7
c0 -8 -4 -12 -9 -9 -5 3 -6 10 -3 15 9 13 12 11 12 -6z m788 5 c3 -5 1 -10 -4
-10 -6 0 -11 5 -11 10 0 6 2 10 4 10 3 0 8 -4 11 -10z m-4085 -25 c-7 -8 -16
-12 -21 -9 -5 3 -9 0 -9 -5 0 -6 -5 -11 -12 -11 -6 0 -8 3 -5 7 4 3 0 11 -9
17 -12 9 -8 11 21 10 19 -1 35 3 35 9 0 6 3 7 6 4 4 -4 1 -13 -6 -22z m1156
16 c5 -5 18 -11 29 -14 11 -2 2 -4 -20 -4 -22 0 -34 2 -26 5 11 4 11 6 0 13
-8 5 -9 9 -3 9 5 0 14 -4 20 -9z m189 -11 c18 -3 14 -5 -14 -6 -17 -1 -28 4
-28 12 0 9 5 10 16 4 9 -4 21 -9 26 -10z m2014 13 c-4 -25 2 -33 19 -25 9 5
99 8 200 6 117 -2 181 0 177 6 -3 6 -1 10 4 10 6 0 11 -4 11 -10 0 -5 8 -7 18
-4 14 5 14 4 3 -4 -12 -9 -4 -23 41 -79 30 -37 61 -78 69 -91 8 -13 20 -20 29
-17 8 4 11 3 7 -2 -4 -4 -66 -6 -137 -4 -88 2 -130 -1 -130 -8 0 -6 6 -11 13
-11 8 0 9 -3 1 -8 -6 -4 -14 -14 -17 -22 -5 -11 -6 -9 -6 5 2 42 0 46 -19 36
-10 -5 -47 -9 -83 -8 -48 2 -63 -1 -61 -11 1 -8 -2 -11 -8 -7 -6 4 -17 1 -25
-5 -11 -10 -15 -10 -15 -1 0 7 -5 9 -12 5 -7 -4 -8 -3 -4 5 4 6 11 9 15 7 4
-3 13 -1 21 5 11 6 7 9 -15 10 -16 1 -34 1 -38 0 -5 -1 -6 3 -2 9 4 6 -12 40
-35 75 -42 65 -55 79 -43 49 5 -14 3 -15 -15 -5 -28 15 -24 55 6 59 23 4 31
22 10 22 -9 0 -8 4 2 10 18 12 20 12 19 3z m834 0 c-7 -2 -19 -2 -25 0 -7 3
-2 5 12 5 14 0 19 -2 13 -5z m-2908 -13 c4 -6 -6 -10 -22 -9 -25 0 -26 1 -8 9
11 5 21 9 22 9 1 1 5 -3 8 -9z m1681 -2 c4 4 4 2 1 -5 -7 -12 -44 -7 -53 8 -3
5 6 5 19 0 14 -6 28 -7 33 -3z m697 5 c-13 -2 -33 -2 -45 0 -13 2 -3 4 22 4
25 0 35 -2 23 -4z m-882 -16 c4 -6 18 -6 35 0 37 11 84 6 63 -8 -9 -6 11 -8
57 -7 44 2 71 -1 71 -7 0 -6 24 -54 54 -108 41 -73 58 -95 71 -91 9 3 20 -1
24 -7 4 -8 3 -9 -4 -5 -7 4 -12 3 -12 -3 0 -19 19 -21 29 -4 6 10 11 12 11 6
0 -8 13 -13 29 -13 25 0 28 3 24 28 l-5 27 21 -30 c11 -16 19 -30 18 -31 -1
-1 -32 -4 -69 -7 -47 -3 -68 -1 -68 7 0 6 -11 16 -23 22 -18 8 -26 7 -36 -3
-7 -8 -16 -12 -19 -8 -4 3 0 11 8 16 11 8 4 9 -24 5 -24 -3 -46 -1 -55 7 -12
9 -13 9 -7 0 4 -8 2 -13 -4 -13 -7 0 -9 -8 -5 -20 5 -17 2 -20 -22 -20 -30 -1
-79 -29 -52 -31 10 0 10 -2 1 -6 -6 -2 -10 -9 -6 -14 3 -5 0 -9 -5 -9 -6 0
-11 5 -11 10 0 6 -13 10 -30 10 -16 0 -30 -4 -30 -8 0 -13 -38 -8 -53 7 -10
10 -7 11 15 6 20 -5 31 -2 44 14 10 11 20 18 23 16 3 -2 6 8 6 21 0 26 -10 32
-18 12 -4 -10 -6 -10 -6 0 -1 18 28 27 42 13 8 -8 8 -11 -1 -11 -7 0 -12 -5
-12 -11 0 -8 5 -8 15 1 8 7 12 16 9 21 -3 5 0 9 5 9 6 0 11 -4 11 -10 0 -5 12
-10 26 -10 22 0 23 2 11 14 -8 8 -27 16 -42 18 -25 3 -19 8 53 48 45 24 78 48
74 52 -4 3 -62 23 -129 43 l-123 36 -85 -44 c-46 -25 -81 -47 -78 -51 4 -3 25
-6 49 -6 48 0 81 -10 66 -19 -6 -3 23 -17 65 -31 61 -20 71 -26 52 -31 -13 -3
-32 -5 -41 -3 -22 4 -22 0 -2 -20 14 -15 13 -16 -10 -16 -16 0 -26 6 -26 15 0
8 -5 15 -10 15 -6 0 -10 -6 -9 -12 4 -35 -2 -39 -22 -13 -16 20 -29 26 -48 23
-34 -5 -55 15 -92 89 -16 32 -27 49 -23 38 3 -11 8 -27 11 -35 2 -8 -1 -6 -8
5 -7 11 -18 23 -25 28 -7 4 -11 14 -8 22 4 8 10 13 14 10 5 -3 6 3 3 13 -3 12
4 21 24 29 25 10 26 11 6 12 -13 1 -23 5 -23 10 0 13 233 10 241 -2z m-2417
-17 c28 0 17 -6 -26 -14 -24 -4 -38 -3 -38 4 0 5 7 10 16 10 9 0 12 5 8 13 -6
10 -4 10 7 0 7 -7 22 -13 33 -13z m2916 -6 c0 -2 -9 0 -20 6 -11 6 -20 13 -20
16 0 2 9 0 20 -6 11 -6 20 -13 20 -16z m555 16 c4 -6 -1 -7 -12 -4 -13 4 -11
0 6 -14 23 -18 38 -53 23 -51 -14 1 -53 59 -47 69 8 13 22 13 30 0z m-3724 -9
c-11 -7 -6 -11 20 -14 29 -4 28 -4 -8 -4 -34 1 -40 4 -31 14 6 7 16 13 22 13
6 0 5 -4 -3 -9z m1399 -13 c-1 -21 -2 -21 -13 -6 -7 9 -31 18 -53 21 -34 3
-33 4 14 5 48 2 52 0 52 -20z m90 7 c10 -12 10 -15 0 -15 -9 0 -11 -13 -6 -47
4 -41 4 -43 -5 -18 -5 17 -7 42 -5 57 3 16 0 29 -7 32 -8 3 -8 5 -1 5 6 1 17
-6 24 -14z m-1168 -11 c-24 -8 -51 -13 -60 -11 -12 3 -10 5 6 6 13 0 21 4 19
9 -3 4 14 8 36 9 l42 2 -43 -15z m363 -4 c27 0 44 -4 40 -10 -3 -5 -11 -7 -18
-4 -18 7 -67 -34 -66 -54 0 -14 2 -13 9 3 5 11 9 14 9 7 1 -7 -5 -21 -11 -32
-10 -16 -9 -25 5 -50 13 -21 14 -28 5 -25 -17 7 -21 -31 -7 -58 8 -14 8 -17 0
-13 -6 4 -11 0 -11 -9 0 -8 6 -18 14 -21 8 -3 13 -14 11 -25 -2 -10 0 -19 6
-19 5 0 9 5 9 12 0 6 3 8 7 5 3 -4 13 -1 21 6 12 9 16 9 19 0 3 -7 9 -13 15
-13 6 0 8 6 5 14 -4 10 1 13 19 11 15 -1 24 3 24 11 0 8 -4 14 -10 14 -5 0
-11 39 -13 88 l-3 87 0 -93 c1 -63 -3 -92 -11 -92 -6 0 -9 9 -6 21 4 14 0 25
-11 31 -17 9 -17 11 0 29 16 18 16 19 -4 19 -12 0 -22 5 -22 10 0 6 -8 10 -17
11 -12 1 -10 3 6 8 33 9 43 36 10 28 -23 -6 -23 -5 -5 8 11 8 26 15 33 15 7 0
13 10 13 22 0 12 3 18 7 15 3 -4 12 1 19 11 8 10 13 12 14 5 0 -7 5 -13 12
-13 6 0 8 3 5 6 -3 4 4 15 16 24 26 21 82 23 65 3 -5 -7 -13 -12 -16 -11 -4 0
-16 0 -27 -1 -16 -1 -17 -3 -6 -10 10 -6 24 -5 40 3 27 12 71 11 71 -3 0 -7
65 -6 158 3 24 2 70 2 102 -1 l58 -6 12 -66 c6 -36 13 -81 16 -98 6 -32 5 -33
-30 -33 -20 0 -36 -5 -36 -10 0 -6 -3 -9 -7 -9 -17 3 -33 -1 -32 -8 4 -22 -3
-23 -21 -2 -12 14 -18 17 -14 8 3 -10 -1 -19 -10 -22 -19 -7 -33 12 -17 23 7
4 -13 8 -43 9 -33 1 -56 -3 -56 -9 0 -5 7 -10 16 -10 10 0 14 -6 11 -14 -4
-10 2 -16 16 -19 12 -2 -5 -4 -38 -4 -60 -1 -115 14 -115 31 0 4 -7 3 -16 -4
-12 -11 -15 -11 -12 0 2 10 -11 15 -47 17 -44 2 -47 1 -22 -8 15 -6 27 -17 27
-24 0 -8 10 -16 23 -18 12 -2 6 -4 -15 -3 -20 0 -36 3 -36 6 1 19 -4 30 -13
30 -6 0 -8 -8 -4 -19 5 -17 1 -20 -27 -19 -34 1 -165 -17 -205 -28 -15 -4 -23
-2 -23 6 0 9 -17 11 -69 6 -38 -4 -72 -3 -75 2 -7 11 6 26 24 30 10 1 9 -3 -5
-14 -20 -15 -19 -16 5 -12 14 2 24 9 23 16 -3 13 19 17 31 5 4 -4 19 -9 34
-10 22 -3 20 0 -15 18 -24 11 -43 26 -43 33 0 6 -9 12 -20 12 -11 0 -20 -4
-20 -8 0 -25 -20 -47 -36 -41 -7 2 -15 0 -19 -6 -3 -6 1 -11 11 -11 26 0 11
-10 -22 -15 -16 -2 -24 -2 -17 1 7 3 9 12 6 21 -4 9 -2 14 3 11 5 -4 17 -1 26
6 15 11 13 13 -15 13 -18 0 -34 -4 -37 -8 -7 -10 -58 -11 -162 -5 -45 3 -78 1
-78 -5 0 -5 -11 -9 -25 -9 -14 0 -25 -6 -25 -12 0 -9 -3 -8 -10 2 -8 12 -10
12 -16 -3 -3 -9 -10 -14 -15 -11 -5 3 -7 9 -4 14 11 18 -99 27 -125 10 -11 -8
-8 -9 14 -6 22 4 29 1 33 -14 3 -11 8 -18 12 -16 4 3 13 1 21 -4 11 -7 5 -9
-20 -9 -19 0 -44 -1 -55 -3 -15 -2 -20 3 -21 22 -1 35 6 50 22 50 8 0 14 9 13
23 -1 16 -2 18 -6 5 -2 -10 -9 -18 -14 -18 -6 0 -7 5 -4 10 3 6 1 10 -4 10 -6
0 -11 9 -11 20 0 11 7 20 15 20 8 0 15 6 16 13 1 6 4 1 8 -13 5 -19 9 -10 19
44 11 57 11 71 0 77 -13 9 -9 10 44 13 9 1 20 5 25 10 4 5 3 6 -4 2 -7 -4 -13
-2 -13 3 0 6 4 11 9 11 5 0 18 3 28 6 13 4 15 3 5 -4 -10 -6 1 -10 37 -10 27
-1 53 3 56 8 4 6 12 4 21 -5 13 -13 30 -14 87 -6 5 0 5 6 1 12 -4 8 0 9 15 4
11 -3 26 -3 33 2 20 12 41 13 53 3 19 -16 78 -16 83 -1 3 8 0 11 -7 7 -7 -4
-9 -2 -5 7 3 9 19 14 43 14 39 -1 54 -22 17 -25 -17 -1 -18 1 -6 9 12 8 12 10
-4 7 -11 -2 -20 -10 -21 -18 -2 -12 8 -15 49 -14 102 1 122 4 107 13 -7 5 -10
14 -7 20 8 12 -4 14 -29 5 -12 -5 -13 -9 -5 -14 6 -4 -2 -7 -18 -6 -60 2 -13
36 51 36 23 0 27 -4 27 -30 0 -16 -4 -30 -10 -30 -5 0 -10 -8 -11 -17 0 -11
-3 -13 -6 -5 -2 6 -13 12 -24 12 -10 0 -19 -6 -20 -12 0 -9 -2 -9 -5 -2 -3 7
-13 10 -24 7 -16 -4 -17 -8 -7 -24 9 -14 9 -22 1 -27 -18 -12 -23 -50 -8 -56
8 -3 13 -11 12 -18 -2 -6 5 -14 16 -16 11 -2 16 0 12 7 -4 6 -1 9 7 5 20 -7
17 -34 -5 -34 -10 0 -18 -4 -18 -10 0 -5 11 -10 25 -10 15 0 25 6 25 14 0 8 4
17 9 20 5 4 7 -8 5 -26 -4 -25 -2 -29 5 -18 9 12 11 10 11 -12 0 -33 7 -38 43
-31 26 5 27 8 27 65 l0 60 -37 -3 c-21 -2 -42 -8 -46 -14 -5 -6 -7 -4 -6 5 1
8 -1 23 -6 33 -5 11 -3 23 5 30 10 9 11 9 6 0 -3 -6 -2 -14 3 -18 6 -3 12 15
14 42 l3 48 2 -51 c2 -40 6 -53 20 -56 37 -10 42 1 42 89 0 80 -1 84 -20 78
-11 -3 -20 -2 -20 3 0 16 13 21 31 12 10 -6 38 -10 64 -10z m105 2 c0 -10 -31
-32 -42 -30 -7 2 -14 -7 -16 -19 -3 -22 -22 -33 -22 -13 0 6 -7 10 -15 10 -27
0 -16 17 15 24 17 3 33 11 35 19 5 11 45 19 45 9z m268 -4 c-2 -6 -11 -13 -19
-16 -11 -3 -11 -2 1 7 12 8 8 11 -17 11 -18 0 -33 -5 -33 -11 0 -5 -4 -7 -10
-4 -23 14 -7 25 36 25 31 0 44 -4 42 -12z m173 -6 c-13 -2 -27 0 -32 5 -6 6 3
7 23 4 28 -4 29 -6 9 -9z m59 8 c0 -5 -7 -10 -15 -10 -8 0 -15 5 -15 10 0 6 7
10 15 10 8 0 15 -4 15 -10z m644 -1 c-4 -8 -1 -8 12 -1 16 8 132 6 142 -3 1
-1 -4 -18 -13 -38 l-15 -35 -62 19 c-34 10 -67 20 -74 23 -14 5 -7 46 8 46 5
0 6 -5 2 -11z m1002 -9 c9 0 12 -4 9 -10 -3 -5 6 -12 21 -16 19 -5 22 -9 12
-15 -23 -15 -36 -10 -52 23 -9 17 -16 34 -15 37 0 3 3 0 6 -6 2 -7 11 -13 19
-13z m-2709 -7 c-9 -2 -15 -9 -12 -14 3 -5 -1 -6 -10 -3 -9 4 -21 -1 -28 -11
-12 -15 -14 -15 -36 3 l-24 19 38 1 c21 1 40 4 43 7 3 3 15 4 26 4 17 -1 18
-2 3 -6z m2773 -5 c0 -4 -4 -8 -9 -8 -6 0 -12 4 -15 8 -3 5 1 9 9 9 8 0 15 -4
15 -9z m-3085 -8 c-4 -7 2 -9 17 -7 12 2 17 2 10 0 -7 -3 -10 -9 -7 -14 4 -5
-3 -9 -14 -9 -13 0 -18 6 -16 18 5 23 4 22 11 22 3 0 2 -5 -1 -10z m1440 -11
c-8 -12 -32 -12 -39 0 -4 5 4 7 16 3 16 -4 19 -2 13 8 -5 9 -4 11 4 6 6 -4 9
-12 6 -17z m1342 -10 c6 -20 14 -21 57 -3 14 5 17 4 12 -4 -5 -9 9 -12 50 -12
72 0 62 -18 -15 -27 -37 -4 -51 -10 -47 -19 3 -8 -4 -14 -17 -16 -32 -5 -68 3
-61 13 3 5 1 9 -4 9 -6 0 -8 9 -5 20 3 11 10 20 16 20 6 0 4 7 -5 16 -12 12
-20 14 -36 5 -31 -16 -41 -13 -12 4 36 21 61 18 67 -6z m33 5 c0 -8 -4 -12
-10 -9 -5 3 -10 10 -10 16 0 5 5 9 10 9 6 0 10 -7 10 -16z m1275 6 c3 -6 -1
-7 -9 -4 -18 7 -21 14 -7 14 6 0 13 -4 16 -10z m-3932 -7 c-7 -2 -21 -2 -30 0
-10 3 -4 5 12 5 17 0 24 -2 18 -5z m1248 -41 c-6 -2 -11 -11 -11 -20 0 -15 -2
-15 -10 -2 -5 8 -10 28 -10 44 l0 29 21 -24 c11 -13 16 -25 10 -27z m1744 38
c3 -5 1 -10 -6 -10 -8 0 -7 -5 2 -17 13 -16 12 -17 -3 -4 -10 7 -16 17 -13 21
2 4 -7 5 -22 2 -18 -3 -24 -1 -19 7 9 14 53 15 61 1z m786 -7 c13 -16 12 -17
-3 -4 -10 7 -18 15 -18 17 0 8 8 3 21 -13z m-687 -9 c3 -8 2 -12 -4 -9 -6 3
-10 10 -10 16 0 14 7 11 14 -7z m61 7 c3 -5 0 -13 -6 -17 -7 -4 -9 -3 -5 4 3
6 -2 13 -11 15 -16 4 -16 5 -1 6 9 0 19 -3 23 -8z m584 -43 c6 -16 7 -28 2
-28 -4 0 -16 12 -27 28 -36 48 -36 51 -9 39 13 -7 29 -24 34 -39z m-1209 32
c0 -5 -8 -10 -17 -10 -15 0 -16 2 -3 10 19 12 20 12 20 0z m43 -7 c-7 -2 -19
-2 -25 0 -7 3 -2 5 12 5 14 0 19 -2 13 -5z m327 -3 c0 -5 7 -10 15 -10 16 0
16 -1 20 -37 3 -34 -7 -28 -32 17 -12 22 -17 40 -12 40 5 0 9 -4 9 -10z m296
-17 c-3 -8 -2 -11 4 -8 5 3 14 -4 20 -15 11 -20 10 -20 -12 -8 -13 7 -26 17
-30 22 -9 13 2 37 14 30 5 -3 7 -13 4 -21z m-1278 0 c-10 -2 -28 -2 -40 0 -13
2 -5 4 17 4 22 1 32 -1 23 -4z m-2095 -46 c-3 -20 -10 -37 -15 -37 -5 0 -6 5
-3 10 3 6 1 10 -4 10 -6 0 -11 9 -11 20 0 11 7 20 15 20 8 0 15 5 15 12 0 6 2
9 5 7 2 -3 2 -22 -2 -42z m1604 21 c-3 -8 -6 -5 -6 6 -1 11 2 17 5 13 3 -3 4
-12 1 -19z m1616 -39 c-7 -26 -15 -17 -19 23 -3 30 -2 31 10 15 8 -10 12 -27
9 -38z m741 25 c3 -8 2 -12 -4 -9 -6 3 -10 10 -10 16 0 14 7 11 14 -7z m-2527
-9 c9 -10 12 -22 7 -33 -4 -9 -6 -20 -6 -24 1 -5 -2 -8 -8 -8 -5 0 -10 6 -11
13 0 6 -3 24 -5 40 -5 31 1 34 23 12z m713 -20 c0 -34 -1 -35 -39 -35 -33 0
-38 3 -34 19 3 14 46 44 71 50 1 1 2 -15 2 -34z m1221 25 c24 -13 25 -30 2
-30 -14 0 -15 2 -4 9 10 6 6 11 -15 19 -16 6 -23 11 -16 11 7 1 22 -4 33 -9z
m-2750 -7 c-11 -5 -11 -7 0 -14 9 -6 4 -8 -16 -5 -16 2 -32 5 -35 6 -9 3 34
19 50 19 12 -1 12 -2 1 -6z m2554 -16 c16 -5 15 -5 -4 -4 -14 1 -26 9 -28 17
-3 10 -2 11 4 4 4 -7 17 -14 28 -17z m832 17 c-3 -3 -12 -4 -19 -1 -8 3 -5 6
6 6 11 1 17 -2 13 -5z m60 -30 c-9 -10 -38 16 -31 28 4 6 13 4 22 -6 9 -8 13
-19 9 -22z m211 12 c-7 -8 -15 -12 -17 -11 -5 6 10 25 20 25 5 0 4 -6 -3 -14z
m-465 -3 c-13 -2 -33 -2 -45 0 -13 2 -3 4 22 4 25 0 35 -2 23 -4z m84 -7 c-4
-9 1 -17 11 -19 13 -4 13 -5 2 -6 -8 0 -22 4 -30 9 -13 9 -13 11 0 20 20 13
23 12 17 -4z m438 5 c3 -5 2 -12 -3 -15 -5 -3 -9 1 -9 9 0 17 3 19 12 6z
m-4371 -10 c3 -5 -8 -14 -24 -20 -28 -9 -29 -9 -20 9 11 21 35 26 44 11z
m3641 -9 c-3 -3 -11 0 -18 7 -9 10 -8 11 6 5 10 -3 15 -9 12 -12z m125 8 c8
-5 11 -10 5 -10 -5 0 -17 5 -25 10 -8 5 -10 10 -5 10 6 0 17 -5 25 -10z m230
-2 c17 -11 22 -10 30 2 7 11 10 12 10 2 0 -10 12 -13 40 -11 21 2 43 0 47 -4
4 -4 -30 -7 -76 -6 -45 1 -77 5 -70 9 8 6 6 9 -7 13 -10 2 -13 5 -6 6 7 0 21
-5 32 -11z m-2490 -34 c0 -8 -5 -12 -10 -9 -6 4 -8 11 -5 16 9 14 15 11 15 -7z
m1238 -17 c7 -15 18 -27 23 -27 6 0 8 -9 4 -19 -4 -14 0 -23 14 -30 25 -14 34
-14 26 -1 -4 6 17 10 55 10 38 0 59 -4 55 -10 -3 -5 -2 -10 3 -10 5 0 12 13
15 30 5 24 11 29 32 28 26 -2 29 -6 19 -33 -6 -14 -8 -14 -25 1 -17 15 -19 15
-19 2 0 -19 26 -31 51 -23 16 6 25 30 20 58 -2 15 27 38 34 27 4 -6 22 -8 43
-5 28 5 33 4 22 -4 -8 -6 -11 -11 -5 -11 5 0 4 -5 -3 -12 -9 -9 -15 -9 -24 0
-15 15 -32 16 -23 2 3 -5 -1 -10 -10 -10 -20 0 -15 -22 6 -28 11 -3 11 -2 -1
7 -12 9 -9 11 15 11 23 0 27 -3 15 -10 -10 -6 -11 -10 -2 -10 6 0 21 9 32 20
16 16 22 17 26 7 9 -23 35 -16 28 7 -4 16 -3 18 5 7 5 -8 18 -16 28 -17 9 -2
19 -8 21 -14 2 -5 7 -8 12 -5 4 3 11 -2 14 -11 4 -12 2 -15 -9 -10 -21 8 -19
-8 6 -35 20 -24 20 -24 9 -1 -7 15 -7 22 0 22 5 0 10 -4 10 -10 0 -5 9 -10 21
-10 11 0 18 -4 14 -9 -3 -5 -1 -12 5 -16 5 -3 10 -16 10 -29 0 -12 11 -32 25
-44 27 -24 29 -30 16 -50 -6 -10 -14 -5 -29 20 -26 39 -29 29 -5 -13 10 -16
23 -27 30 -25 7 3 13 0 13 -6 0 -6 8 -4 18 5 10 9 27 18 38 20 10 1 24 6 30
10 11 7 22 -2 39 -32 5 -9 4 -12 -3 -7 -5 3 -13 0 -15 -6 -4 -8 -8 -5 -12 8
-7 22 -38 23 -52 1 -3 -6 -1 -7 5 -3 13 8 55 -17 47 -27 -3 -4 1 -3 7 3 20 16
33 12 51 -19 9 -16 17 -31 17 -33 0 -1 -34 -4 -76 -6 -60 -3 -74 -1 -68 10 6
10 4 10 -7 2 -21 -15 -119 -17 -119 -2 0 9 -3 10 -8 2 -7 -11 -52 -26 -52 -18
0 3 10 9 23 14 22 9 22 9 -3 10 -20 0 -22 2 -10 10 9 6 10 10 3 10 -6 0 -14
-4 -18 -10 -3 -5 -12 -7 -20 -4 -8 4 -12 11 -8 17 4 6 0 8 -10 4 -9 -3 -18 -3
-21 1 -3 4 -42 8 -88 9 l-83 1 70 -9 c39 -5 75 -7 81 -5 6 2 16 -5 22 -15 7
-10 22 -19 34 -19 12 0 18 -3 14 -7 -7 -8 -11 -9 -37 -12 -5 0 -7 -7 -3 -13 5
-8 1 -7 -10 2 -10 8 -33 13 -52 11 -33 -2 -34 -2 -24 23 8 22 7 26 -9 26 -9 0
-23 -10 -30 -23 -16 -30 -40 -31 -35 -2 4 21 -4 23 -68 16 -5 -1 -8 -9 -8 -20
0 -14 6 -17 28 -13 15 2 24 1 20 -3 -10 -11 -78 -13 -78 -3 0 4 5 8 11 8 5 0
8 4 4 10 -3 5 -13 6 -22 3 -11 -4 -14 -3 -9 5 5 8 2 10 -8 6 -9 -3 -16 -10
-16 -15 0 -5 -5 -9 -10 -9 -6 0 -8 11 -6 24 3 19 1 23 -10 19 -8 -3 -14 -2
-13 3 3 19 -3 48 -8 37 -2 -7 -9 -13 -14 -13 -6 0 -7 5 -4 10 3 6 -1 10 -9 10
-20 0 -40 36 -25 45 6 4 8 13 5 21 -3 8 -3 14 0 14 3 0 10 -14 16 -31 6 -16
12 -28 14 -26 2 2 -1 18 -7 35 -7 21 -18 32 -31 32 -10 0 -16 5 -13 10 3 6 -3
10 -14 10 -11 0 -23 5 -26 10 -3 6 2 10 12 10 12 0 14 3 6 8 -8 5 -9 13 -3 22
6 8 10 10 10 4 0 -5 7 -19 15 -30 14 -17 14 -17 3 11 -6 17 -18 37 -26 45 -8
8 -12 9 -8 3 4 -7 2 -13 -3 -13 -6 0 -11 5 -11 10 0 14 -27 12 -33 -2 -3 -10
-8 -10 -17 -2 -9 9 -3 15 24 24 20 6 33 16 30 22 -4 5 6 2 22 -8 15 -11 25
-13 21 -6 -5 7 -3 12 7 12 19 0 20 5 6 31 -8 15 -21 19 -58 19 l-47 0 35 19
c43 23 52 21 68 -12z m999 27 c-3 -3 -12 -4 -19 -1 -8 3 -5 6 6 6 11 1 17 -2
13 -5z m66 -1 c-7 -2 -19 -2 -25 0 -7 3 -2 5 12 5 14 0 19 -2 13 -5z m-3096
-25 c-3 -8 -6 -5 -6 6 -1 11 2 17 5 13 3 -3 4 -12 1 -19z m-747 -3 c-7 -9 -15
-13 -19 -10 -3 3 1 10 9 15 21 14 24 12 10 -5z m894 9 c9 -3 16 -11 16 -16 0
-12 -30 -37 -45 -38 -5 0 -3 5 5 10 13 9 13 10 0 11 -8 0 -4 4 10 9 l25 7 -25
11 c-26 11 -13 17 14 6z m3254 -11 c-15 -2 -42 -2 -60 0 -18 2 -6 4 27 4 33 0
48 -2 33 -4z m63 -19 c21 -22 21 -24 4 -18 -20 8 -35 23 -35 37 0 12 5 9 31
-19z m-622 -13 c29 -28 33 -30 126 -29 54 0 93 4 89 9 -3 5 0 9 6 9 6 0 8 6 5
13 -4 6 -1 5 7 -4 13 -15 71 -20 84 -6 4 4 17 7 28 7 17 0 18 -2 6 -10 -10 -7
15 -10 83 -9 54 1 101 -2 105 -6 4 -5 -2 -5 -12 -1 -16 5 -17 4 -6 -9 7 -8 15
-13 19 -11 15 8 66 -32 67 -53 2 -29 12 -37 26 -23 16 16 25 15 25 -2 0 -8 -6
-12 -14 -9 -25 10 -13 -16 15 -29 16 -8 27 -21 27 -34 0 -11 6 -28 14 -37 16
-20 24 -19 -129 -19 -77 0 -117 -3 -105 -8 13 -5 0 -7 -37 -5 -32 1 -58 -1
-58 -6 0 -5 -10 -9 -22 -9 -19 0 -20 2 -8 10 10 7 -17 10 -85 10 l-101 0 -68
105 c-37 58 -70 105 -73 105 -5 0 3 -14 29 -52 24 -34 23 -46 -1 -24 -12 11
-25 15 -33 10 -10 -6 -10 -4 1 9 12 15 12 17 -4 11 -13 -5 -16 -4 -11 4 4 7 9
23 12 37 3 19 1 23 -11 19 -8 -4 -15 -10 -15 -14 0 -5 -16 -14 -35 -20 -19 -6
-35 -16 -35 -21 0 -6 4 -7 10 -4 6 3 7 -1 4 -10 -4 -10 -2 -15 7 -13 9 2 13
-4 11 -17 -3 -17 -2 -18 10 -5 7 8 12 13 10 11 -1 -2 5 -12 14 -22 10 -11 12
-19 5 -24 -15 -9 -14 -26 2 -22 6 1 11 -4 10 -10 -2 -7 1 -13 7 -13 5 0 7 -6
4 -13 -3 -8 3 -20 13 -28 16 -13 17 -12 5 3 -8 10 -9 19 -3 22 5 4 12 -2 16
-13 4 -13 12 -17 27 -13 20 5 20 5 -3 18 l-24 13 26 1 c31 0 63 -30 40 -38
-11 -4 -11 -6 0 -13 10 -6 10 -9 2 -9 -7 0 -10 -7 -7 -15 5 -13 8 -12 22 1 14
15 17 15 27 0 7 -9 18 -16 26 -16 8 0 6 5 -6 13 -18 14 -14 37 6 37 6 0 8 -4
5 -9 -4 -5 9 -6 28 -1 28 6 33 5 29 -7 -3 -8 -12 -12 -19 -9 -13 5 -18 -6 -15
-26 0 -5 -34 -8 -76 -8 l-78 1 -26 42 c-15 23 -63 101 -107 174 l-81 131 35 0
c20 0 38 3 41 6 16 16 64 4 92 -23z m54 23 c-7 -3 -10 -11 -7 -19 3 -7 1 -16
-5 -20 -9 -5 -10 16 -2 43 1 1 7 2 14 1 9 0 9 -2 0 -5z m124 0 c-3 -3 -12 -4
-19 -1 -8 3 -5 6 6 6 11 1 17 -2 13 -5z m50 -1 c-16 -3 -25 -9 -21 -15 4 -7 2
-8 -5 -4 -18 12 -2 26 27 25 l27 -2 -28 -4z m603 -3 c8 -5 12 -11 10 -14 -3
-2 -14 2 -24 10 -22 15 -10 19 14 4z m53 -4 c4 -10 1 -13 -8 -9 -8 3 -12 9 -9
14 7 12 11 11 17 -5z m-3209 -11 c3 -8 1 -15 -4 -15 -6 0 -10 7 -10 15 0 8 2
15 4 15 2 0 6 -7 10 -15z m160 -7 c-25 -20 -66 -36 -49 -20 4 4 10 7 14 7 4 0
15 8 25 18 10 9 22 17 28 17 6 0 -2 -10 -18 -22z m121 4 c-3 -3 -11 0 -18 7
-9 10 -8 11 6 5 10 -3 15 -9 12 -12z m1149 -6 c-2 -6 -14 -18 -27 -25 -12 -8
-18 -10 -14 -5 4 4 -3 14 -15 21 -23 12 -23 12 5 13 16 0 26 4 23 9 -4 5 3 7
13 4 11 -3 18 -10 15 -17z m682 -3 c10 -16 17 -36 17 -46 -1 -9 2 -15 7 -12 5
3 11 2 14 -3 2 -4 -6 -8 -19 -8 -13 0 -23 4 -22 9 1 5 -6 14 -15 20 -13 9 -20
8 -30 -2 -11 -10 -10 -12 6 -9 10 1 21 -3 23 -9 4 -10 -3 -10 -26 -2 -17 6
-31 18 -31 26 0 12 8 15 40 10 23 -3 38 -1 34 4 -3 5 -16 9 -30 9 -14 0 -27 7
-30 15 -4 8 -10 12 -15 9 -5 -3 -6 -10 -3 -16 4 -7 2 -8 -5 -4 -6 4 -9 11 -6
16 3 5 -9 11 -27 13 -18 2 -3 5 33 5 62 2 68 0 85 -25z m475 4 c-10 -9 -11 -8
-5 6 3 10 9 15 12 12 3 -3 0 -11 -7 -18z m233 8 c5 -13 -45 -11 -68 2 -12 6
-5 9 24 8 22 0 42 -5 44 -10z m-4069 -4 c9 -15 -24 -41 -42 -34 -11 4 -13 8
-5 11 18 6 15 20 -5 25 -10 3 -4 5 14 6 17 0 34 -3 38 -8z m3713 -9 c2 -8 -7
-11 -25 -11 -26 2 -26 2 -4 6 19 4 21 7 10 15 -12 8 -12 9 0 6 8 -3 17 -10 19
-16z m-2264 0 c2 -4 -5 -9 -17 -9 -17 -2 -19 0 -7 7 18 12 18 12 24 2z m1160
-27 c11 -19 23 -35 28 -35 4 0 8 -7 8 -15 0 -21 41 -65 61 -65 9 0 22 -6 28
-14 10 -12 8 -13 -10 -9 l-23 6 24 -34 c40 -59 71 -88 89 -82 11 3 12 2 4 -4
-10 -7 -5 -18 17 -44 16 -18 29 -28 30 -21 0 14 30 17 30 2 0 -6 -6 -9 -12 -8
-8 2 -12 -5 -10 -17 2 -11 4 -27 5 -35 5 -36 -133 -55 -228 -31 -43 10 -57 20
-93 67 -69 89 -98 88 -63 -3 13 -32 25 -69 28 -83 l6 -25 -25 23 c-14 12 -31
35 -39 50 -16 31 -116 134 -172 176 -37 28 -63 63 -54 72 2 3 24 -11 47 -31
48 -40 66 -40 63 -2 -1 19 7 32 28 47 24 18 27 24 18 41 -10 20 -11 20 -45 -6
-51 -39 -49 -26 3 19 35 31 58 41 111 51 39 8 71 19 77 29 17 28 49 19 69 -19z
m1151 25 c3 -6 -4 -10 -17 -10 -18 0 -20 2 -8 10 19 12 18 12 25 0z m615 -5
c0 -2 -9 -3 -19 -2 -11 0 -18 5 -15 9 4 6 34 0 34 -7z m-230 -10 c7 -9 8 -15
2 -15 -5 0 -12 7 -16 15 -3 8 -4 15 -2 15 2 0 9 -7 16 -15z m258 1 c-7 -8 -15
-12 -17 -11 -5 6 10 25 20 25 5 0 4 -6 -3 -14z m-174 -11 c11 -8 18 -17 15
-19 -2 -3 -15 4 -29 14 -14 11 -20 20 -15 19 6 0 19 -6 29 -14z m-3880 -3 c2
-4 -11 -6 -30 -4 -19 2 -34 0 -34 -6 0 -6 9 -8 19 -5 11 3 28 0 38 -6 16 -9
15 -10 -7 -7 -14 2 -29 0 -35 -4 -5 -4 -18 -4 -29 -1 -17 7 -17 8 -2 24 18 17
71 23 80 9z m3841 -10 c-3 -3 -11 0 -18 7 -9 10 -8 11 6 5 10 -3 15 -9 12 -12z
m248 -16 c-3 -6 -2 -8 2 -3 10 8 55 -31 55 -47 0 -6 -7 -3 -15 8 -7 10 -18 15
-23 12 -12 -7 -27 11 -35 42 -4 19 -3 21 9 11 7 -6 11 -16 7 -23z m-4483 20
c0 -2 -7 -7 -16 -10 -8 -3 -12 -2 -9 4 6 10 25 14 25 6z m155 -6 c3 -6 -1 -7
-9 -4 -18 7 -21 14 -7 14 6 0 13 -4 16 -10z m1355 -12 c0 -4 -4 -8 -9 -8 -6 0
-12 4 -15 8 -3 5 1 9 9 9 8 0 15 -4 15 -9z m-185 -6 c-28 -6 -38 -26 -17 -34
9 -4 -5 -5 -32 -3 -26 2 -56 11 -65 19 -10 9 -20 13 -23 10 -3 -3 -9 -1 -12 5
-4 6 24 10 81 9 48 0 79 -3 68 -6z m149 -13 c-3 -5 -10 -7 -15 -3 -5 3 -7 10
-3 15 3 5 10 7 15 3 5 -3 7 -10 3 -15z m-1277 5 c-3 -3 -12 -4 -19 -1 -8 3 -5
6 6 6 11 1 17 -2 13 -5z m843 -6 c0 -4 -7 -8 -15 -8 -8 0 -15 4 -15 8 0 5 7 9
15 9 8 0 15 -4 15 -9z m1214 -13 c3 -9 0 -15 -10 -15 -8 0 -13 3 -11 8 9 14
-77 12 -100 -3 -13 -9 -23 -11 -23 -5 0 29 133 42 144 15z m1341 4 c11 -17 -1
-21 -15 -4 -8 9 -8 15 -2 15 6 0 14 -5 17 -11z m-181 -14 c6 -17 4 -18 -18 -9
-20 8 -21 24 -2 24 8 0 16 -7 20 -15z m77 -39 c16 -27 27 -51 24 -54 -10 -10
-35 -11 -29 -1 3 5 10 6 16 3 6 -4 8 -1 6 7 -3 8 -10 13 -16 12 -7 -2 -9 4 -5
13 5 14 3 15 -15 5 -24 -13 -57 -10 -74 7 -12 12 1 21 38 26 10 2 20 9 22 16
3 7 0 10 -6 6 -6 -3 -13 -2 -16 3 -4 5 1 8 9 7 8 -1 29 -24 46 -50z m843 3
c-3 -5 -11 -9 -17 -8 -8 0 -8 2 1 6 10 4 10 8 0 21 -12 15 -11 16 4 3 10 -7
15 -17 12 -22z m178 16 c0 -5 -5 -10 -11 -11 -8 -2 -7 -1 0 3 8 4 7 8 -2 15
-11 8 -11 9 -1 6 8 -2 14 -8 14 -13z m-883 -8 c23 6 39 -16 20 -28 -24 -15
-35 -9 -14 7 20 15 20 16 -4 12 -14 -2 -25 2 -27 10 -1 7 0 8 2 3 3 -5 13 -7
23 -4z m-1469 -11 c0 -11 -33 -36 -48 -36 -12 0 -7 7 13 20 32 21 35 22 35 16z
m40 -16 c0 -12 10 -24 23 -30 17 -7 18 -9 5 -9 -10 -1 -18 -5 -18 -11 0 -5 6
-7 13 -4 9 3 13 -2 12 -15 -2 -31 -8 -32 -51 -16 -25 10 -29 13 -11 10 23 -5
27 -2 27 16 0 19 -4 21 -42 15 -58 -9 -88 -9 -95 -2 -14 13 10 19 67 17 60 -2
61 -2 54 23 -4 16 -2 26 5 26 6 0 11 -9 11 -20z m1522 -32 c15 -23 25 -45 22
-47 -3 -3 -8 -1 -12 4 -16 22 -49 34 -62 22 -10 -10 -12 -8 -6 7 5 14 3 16 -6
8 -9 -7 -17 -6 -26 4 -11 12 -8 14 20 12 26 -2 33 1 32 15 -3 27 9 20 38 -25z
m-3680 18 c7 4 8 2 4 -4 -11 -18 -26 -14 -25 6 0 10 3 12 6 4 2 -6 10 -9 15
-6z m1268 -18 c0 -5 -4 -6 -10 -3 -5 3 -10 0 -11 -7 0 -7 -3 -22 -5 -33 -3
-11 -5 -30 -6 -42 -1 -28 0 -28 -84 2 -38 14 -70 25 -72 25 -2 0 0 5 4 11 3 6
15 8 26 6 11 -3 17 -3 14 1 -12 11 95 59 120 54 13 -2 24 -9 24 -14z m2140 1
c0 -5 5 -7 10 -4 6 3 10 0 10 -8 0 -15 -29 -32 -38 -22 -3 3 1 5 8 5 11 0 11
3 2 12 -15 15 -16 28 -2 28 6 0 10 -5 10 -11z m-1487 -7 c-7 -4 48 -28 129
-56 138 -48 140 -49 174 -32 33 15 37 15 67 -1 l32 -18 -32 -3 c-18 -2 -33 -8
-33 -14 0 -6 -13 -8 -32 -4 -18 3 -40 2 -48 -4 -9 -6 -19 -5 -28 2 -10 9 -12
8 -10 -2 2 -10 -8 -14 -34 -14 -20 -1 -39 -4 -42 -7 -4 -3 10 -5 29 -4 40 3
42 0 18 -23 -16 -16 -16 -16 -10 1 5 15 2 16 -23 12 -21 -4 -30 -1 -30 8 0 21
-43 15 -46 -5 -1 -10 3 -21 8 -25 6 -3 8 -1 4 5 -3 6 -1 14 5 18 8 4 9 3 5 -4
-5 -8 1 -12 15 -12 12 0 20 -3 16 -6 -6 -6 -159 -18 -242 -19 l-39 0 -12 55
c-7 30 -12 49 -13 41 0 -8 -3 -12 -6 -10 -2 3 -2 15 2 27 4 18 8 20 19 11 8
-6 30 -13 50 -15 57 -5 79 -14 63 -26 -10 -6 -7 -7 9 -3 21 6 23 4 17 -15 -5
-15 -4 -20 4 -16 17 11 14 57 -3 50 -7 -3 -16 2 -20 11 -3 10 -12 15 -19 12
-8 -3 -14 1 -14 9 0 9 6 13 15 9 12 -4 12 -3 3 9 -9 11 -9 15 1 19 8 2 18 -9
25 -27 l12 -31 -5 37 c-7 43 0 68 18 68 10 0 10 -2 1 -8z m2455 -15 c-1 -2 12
-16 30 -32 18 -15 37 -36 43 -46 9 -18 6 -19 -53 -18 -44 1 -54 3 -34 8 26 5
27 7 13 20 -9 7 -14 18 -10 24 4 6 9 3 13 -8 6 -18 7 -17 12 3 4 15 2 22 -7
22 -8 0 -17 5 -20 10 -7 11 4 34 12 26 2 -2 3 -6 1 -9z m-2153 -6 c3 -5 2 -12
-3 -15 -5 -3 -9 1 -9 9 0 17 3 19 12 6z m2092 -6 c0 -17 -13 -20 -21 -6 -4 5
0 12 6 14 7 3 13 6 14 6 0 1 1 -6 1 -14z m35 -22 c-6 -2 -9 -10 -6 -15 4 -7 2
-8 -5 -4 -13 9 -5 26 12 25 9 0 8 -2 -1 -6z m-2515 -18 c0 -9 -9 -15 -21 -15
-21 1 -21 1 -2 15 24 18 23 18 23 0z m1888 5 c3 -5 1 -10 -4 -10 -6 0 -11 5
-11 10 0 6 2 10 4 10 3 0 8 -4 11 -10z m430 -10 c-18 -5 -23 -8 -11 -9 11 0
16 -4 13 -8 -4 -3 -17 -1 -30 5 -12 6 -31 13 -42 15 -11 3 7 5 40 5 47 0 54
-2 30 -8z m-262 -7 c-7 -2 -21 -2 -30 0 -10 3 -4 5 12 5 17 0 24 -2 18 -5z
m137 -4 c12 -9 12 -10 -3 -5 -13 4 -20 0 -24 -14 -3 -13 -13 -20 -27 -19 -15
1 -16 3 -5 6 10 2 19 13 22 24 6 21 15 24 37 8z m224 -1 c-3 -5 -10 -5 -16 -2
-7 4 -8 2 -4 -4 4 -7 14 -12 23 -12 9 0 14 -3 10 -6 -3 -3 -15 -3 -26 1 -26 8
-28 34 -2 32 11 0 17 -5 15 -9z m56 -10 c0 -11 -7 -18 -17 -17 -12 0 -13 2 -5
6 10 4 9 8 -5 18 -17 13 -17 14 5 12 14 -1 22 -8 22 -19z m-227 -11 c3 -8 -9
-13 -34 -14 -23 -1 -37 2 -33 8 3 5 10 7 15 4 5 -4 12 0 15 9 6 16 30 12 37
-7z m88 0 c-10 -9 -11 -8 -5 6 3 10 9 15 12 12 3 -3 0 -11 -7 -18z m-331 -3
c0 -9 5 -12 13 -8 6 4 8 3 4 -2 -11 -12 -56 -13 -64 -1 -4 6 3 8 16 4 17 -4
21 -2 17 9 -3 8 -1 14 4 14 6 0 10 -7 10 -16z m103 -2 c-5 -10 -8 -11 -13 -1
-5 6 -15 9 -24 6 -9 -4 -16 -2 -16 3 0 6 13 9 29 8 20 -1 27 -6 24 -16z
m-2279 -34 c-4 -6 1 -8 14 -4 16 6 20 1 25 -26 2 -18 4 -34 3 -35 -1 -1 -67
-4 -147 -7 -79 -2 -135 -2 -124 1 11 3 26 13 33 22 11 13 14 13 19 2 5 -11 7
-11 14 0 6 10 9 11 9 2 0 -7 4 -13 10 -13 5 0 7 7 4 15 -4 11 0 15 16 15 13 0
24 -8 27 -20 3 -11 10 -17 15 -14 5 3 7 13 4 21 -3 8 -1 11 4 8 6 -3 10 1 10
10 0 9 5 13 10 10 6 -3 10 -1 10 4 0 6 9 11 21 11 13 0 18 4 13 12 -4 7 -3 8
5 4 6 -4 8 -12 5 -18z m639 15 c-7 -2 -19 -2 -25 0 -7 3 -2 5 12 5 14 0 19 -2
13 -5z m-78 -13 c4 -6 10 -8 15 -5 5 3 12 -1 17 -9 4 -7 17 -16 28 -18 11 -3
-5 -5 -35 -5 -30 0 -70 -3 -89 -8 -23 -5 -31 -4 -27 4 4 6 14 11 22 11 8 0 14
6 14 14 0 23 43 35 55 16z m95 -6 c0 -8 -19 -13 -24 -6 -3 5 1 9 9 9 8 0 15
-2 15 -3z m1790 -19 c-36 -7 -59 -13 -52 -14 6 0 12 -6 12 -13 0 -6 -8 -3 -20
7 -11 10 -18 20 -16 24 2 3 35 7 73 7 l68 2 -65 -13z m153 8 c-7 -2 -21 -2
-30 0 -10 3 -4 5 12 5 17 0 24 -2 18 -5z m-963 -20 c0 -1 -10 -13 -22 -25 -17
-17 -20 -18 -15 -4 4 10 7 21 7 25 0 4 7 8 15 8 8 0 15 -2 15 -4z m829 -19
c-14 -18 -24 -11 -15 11 3 9 11 13 16 10 8 -5 7 -11 -1 -21z m233 4 c-7 -7
-12 -8 -12 -2 0 14 12 26 19 19 2 -3 -1 -11 -7 -17z m-465 -2 c-3 -8 -1 -17 6
-19 7 -3 2 -4 -10 -4 -13 1 -23 7 -23 15 0 7 5 10 10 7 6 -3 10 -1 10 4 0 6 3
11 6 11 3 0 4 -6 1 -14z m203 4 c0 -5 -4 -10 -10 -10 -5 0 -10 5 -10 10 0 6 5
10 10 10 6 0 10 -4 10 -10z m117 4 c-3 -3 -12 -4 -19 -1 -8 3 -5 6 6 6 11 1
17 -2 13 -5z m-2827 -8 c0 -7 -40 -14 -44 -7 -3 4 6 8 20 9 13 1 24 0 24 -2z
m2833 -13 c-7 -2 -21 -2 -30 0 -10 3 -4 5 12 5 17 0 24 -2 18 -5z m50 0 c-7
-2 -19 -2 -25 0 -7 3 -2 5 12 5 14 0 19 -2 13 -5z m157 -14 c0 -5 -4 -9 -10
-9 -5 0 -10 7 -10 16 0 8 5 12 10 9 6 -3 10 -10 10 -16z m45 -17 c-3 -3 -11 0
-18 7 -9 10 -8 11 6 5 10 -3 15 -9 12 -12z m-2070 -10 c-3 -3 -11 0 -18 7 -9
10 -8 11 6 5 10 -3 15 -9 12 -12z m2110 0 c-3 -3 -11 0 -18 7 -9 10 -8 11 6 5
10 -3 15 -9 12 -12z m-2345 -15 c0 -1 -16 -2 -35 -2 -30 0 -33 2 -19 12 12 9
22 9 35 2 11 -5 19 -11 19 -12z m2283 13 c7 -6 20 -16 30 -23 10 -7 19 -20 20
-28 2 -9 11 -28 21 -43 10 -15 16 -29 14 -31 -4 -4 -25 22 -82 98 -27 35 -29
49 -3 27z m-701 -34 c-3 -27 0 -37 17 -46 12 -6 19 -15 16 -21 -4 -5 -1 -9 4
-9 6 0 11 6 11 12 0 7 6 3 14 -8 8 -11 13 -29 11 -40 -2 -10 -4 -23 -4 -28 -1
-11 -29 26 -70 93 -33 55 -33 56 4 81 1 0 -1 -15 -3 -34z m149 -87 c-24 -25
-59 -41 -66 -30 -3 6 2 14 11 19 15 9 15 10 -4 16 -12 4 -22 12 -22 18 0 5 7
7 16 4 40 -15 64 -18 64 -6 0 6 -5 8 -12 4 -7 -4 -8 -3 -4 4 8 13 -7 16 -58
12 -18 -1 -26 2 -21 9 3 6 -2 14 -11 18 -16 6 -16 7 2 14 28 11 46 11 39 -1
-4 -6 -11 -7 -17 -4 -7 4 -8 2 -4 -5 10 -16 36 4 36 28 0 8 15 -7 33 -34 31
-45 32 -51 18 -66z m-2531 87 c0 -3 -4 -8 -10 -11 -5 -3 -10 -1 -10 4 0 6 5
11 10 11 6 0 10 -2 10 -4z m377 -38 c-3 -8 -6 -5 -6 6 -1 11 2 17 5 13 3 -3 4
-12 1 -19z m2028 12 c3 -5 1 -10 -4 -10 -6 0 -11 5 -11 10 0 6 2 10 4 10 3 0
8 -4 11 -10z m-820 -53 c9 -21 11 -37 5 -37 -5 0 -10 7 -10 15 0 9 -6 18 -14
21 -8 3 -12 13 -9 25 7 24 8 23 28 -24z m-343 -15 c-10 -3 -10 -7 -1 -18 8
-10 9 -14 0 -14 -6 0 -16 12 -21 26 -14 35 -13 36 12 23 15 -8 18 -14 10 -17z
m118 -42 c0 -5 -2 -10 -4 -10 -3 0 -8 5 -11 10 -3 6 -1 10 4 10 6 0 11 -4 11
-10z"/>
<path d="M2900 1430 c-9 -6 -10 -10 -3 -10 6 0 15 5 18 10 8 12 4 12 -15 0z"/>
<path d="M935 1410 c-18 -8 -17 -9 8 -9 15 -1 27 4 27 9 0 12 -8 12 -35 0z"/>
<path d="M918 1378 c-9 -23 2 -35 27 -30 34 6 35 42 1 42 -13 0 -26 -6 -28
-12z"/>
<path d="M1005 1270 c-4 -6 -11 -8 -16 -4 -9 5 -11 -53 -3 -87 5 -18 67 -17
89 1 10 8 14 7 18 -2 3 -7 5 5 5 27 0 22 -3 30 -5 18 -3 -18 -7 -20 -18 -10
-9 9 -10 14 -1 19 6 4 -9 8 -34 9 -30 1 -36 3 -17 6 15 2 27 9 27 14 0 6 -4 7
-10 4 -5 -3 -10 -1 -10 4 0 14 -17 14 -25 1z m55 -70 c8 -5 11 -10 5 -10 -5 0
-17 5 -25 10 -8 5 -10 10 -5 10 6 0 17 -5 25 -10z"/>
<path d="M1250 1250 c-140 -56 -135 -49 -55 -77 141 -48 152 -49 252 -8 48 20
91 40 96 44 6 6 -134 52 -203 67 -8 2 -49 -10 -90 -26z m96 -27 c-5 -11 5 -14
49 -12 30 1 58 -1 62 -4 3 -4 -19 -7 -51 -7 -47 0 -56 -3 -54 -16 2 -10 -3
-19 -9 -21 -8 -3 -13 4 -13 16 0 13 -6 21 -16 21 -10 0 -14 -6 -11 -15 5 -11
0 -13 -26 -8 -18 3 -41 12 -52 20 -19 13 -19 13 0 15 11 0 26 1 33 1 6 -1 12
3 12 8 0 5 5 9 11 9 5 0 7 -4 4 -10 -4 -6 5 -10 20 -10 19 0 26 4 22 14 -7 17
2 28 15 20 5 -3 7 -13 4 -21z m39 7 c3 -6 -1 -7 -9 -4 -18 7 -21 14 -7 14 6 0
13 -4 16 -10z"/>
<path d="M1253 1193 c9 -2 23 -2 30 0 6 3 -1 5 -18 5 -16 0 -22 -2 -12 -5z"/>
<path d="M431 1215 l-114 -42 44 -16 c24 -9 69 -26 99 -37 30 -11 60 -20 67
-20 18 0 225 81 220 86 -4 5 -200 75 -201 73 -1 -1 -52 -20 -115 -44z m204
-42 c-24 -13 -55 -8 -55 8 0 5 6 9 13 9 6 0 4 5 -6 11 -23 14 -42 2 -26 -17 9
-11 8 -14 -4 -14 -8 0 -14 -7 -13 -16 0 -9 -5 -19 -13 -22 -10 -3 -12 1 -8 17
5 20 1 21 -56 21 -33 0 -57 3 -54 6 4 4 31 7 62 6 30 0 57 4 60 8 9 15 -13 20
-41 10 -15 -6 -29 -9 -31 -6 -2 2 15 10 39 18 40 14 48 13 100 -6 55 -20 57
-21 33 -33z m-140 -23 c3 -6 -1 -7 -9 -4 -18 7 -21 14 -7 14 6 0 13 -4 16 -10z"/>
<path d="M848 1083 c-28 -7 -21 -20 11 -21 22 0 28 3 24 14 -5 15 -6 15 -35 7z"/>
<path d="M3493 1303 l-73 -37 43 -13 c112 -34 209 -55 229 -49 13 3 47 21 76
39 52 34 52 34 25 41 -16 3 -68 17 -118 30 -49 14 -94 25 -100 25 -5 0 -43
-16 -82 -36z m77 -8 c-7 -8 -17 -15 -23 -15 -6 0 -2 7 9 15 25 19 30 19 14 0z
m50 -3 c24 -30 41 -62 32 -62 -10 0 -42 38 -42 50 0 6 -4 10 -10 10 -5 0 -10
5 -10 10 0 16 14 12 30 -8z m-30 -28 c0 -2 -16 -4 -35 -4 -19 0 -35 4 -35 8 0
4 16 6 35 4 19 -2 35 -6 35 -8z m123 9 c-13 -2 -33 -2 -45 0 -13 2 -3 4 22 4
25 0 35 -2 23 -4z"/>
<path d="M3700 1020 c-36 -22 -66 -43 -67 -47 -3 -9 261 -87 274 -82 23 10
133 83 133 88 0 7 -247 81 -266 81 -5 -1 -38 -19 -74 -40z m130 0 c4 0 7 -8 6
-17 -1 -15 8 -18 57 -19 76 -2 87 -14 13 -14 -52 0 -56 -2 -42 -15 12 -13 20
-14 38 -5 21 11 21 10 -2 -9 -17 -13 -29 -17 -41 -11 -9 5 -19 7 -22 3 -4 -3
-4 4 -2 16 4 21 1 22 -55 19 -32 -1 -61 0 -65 3 -9 9 78 59 93 54 8 -3 17 -5
22 -5z m83 -27 c-7 -2 -19 -2 -25 0 -7 3 -2 5 12 5 14 0 19 -2 13 -5z"/>
<path d="M3785 1009 c-4 -6 -17 -14 -29 -19 -17 -7 -13 -9 22 -9 45 -1 50 3
28 25 -10 10 -17 11 -21 3z"/>
<path d="M2938 1053 c7 -3 16 -2 19 1 4 3 -2 6 -13 5 -11 0 -14 -3 -6 -6z"/>
<path d="M1248 993 c7 -3 16 -2 19 1 4 3 -2 6 -13 5 -11 0 -14 -3 -6 -6z"/>
<path d="M1310 963 c-19 -8 -37 -18 -40 -22 -3 -3 -12 -7 -20 -9 -8 -2 -37
-13 -64 -25 l-50 -21 30 -13 c16 -6 50 -12 76 -13 26 0 50 -5 53 -10 4 -7 -3
-9 -22 -5 -15 3 1 -6 36 -20 72 -29 68 -30 199 33 l96 46 -114 38 c-127 42
-131 43 -180 21z m29 -24 c17 10 35 8 91 -10 79 -26 79 -39 -1 -41 -29 -1 -48
-3 -42 -5 16 -6 4 -43 -14 -43 -10 0 -14 7 -10 20 3 11 1 18 -3 15 -5 -3 -10
0 -12 6 -3 8 -14 8 -38 2 -19 -5 -46 -6 -60 -3 -24 7 -24 8 16 26 26 13 39 25
37 34 -4 12 -3 12 5 1 7 -10 14 -11 31 -2z m101 -69 c-8 -5 -19 -10 -25 -10
-5 0 -3 5 5 10 8 5 20 10 25 10 6 0 3 -5 -5 -10z"/>
<path d="M1310 914 c-25 -14 -25 -14 13 -14 26 0 37 4 35 12 -6 17 -20 18 -48
2z"/>
<path d="M1383 915 c0 -11 12 -15 46 -15 l46 1 -40 14 c-50 18 -52 18 -52 0z"/>
<path d="M578 963 c6 -2 18 -2 25 0 6 3 1 5 -13 5 -14 0 -19 -2 -12 -5z"/>
<path d="M475 936 c-16 -7 -69 -28 -117 -47 -49 -19 -88 -37 -88 -40 0 -3 49
-24 110 -47 l110 -42 120 52 c66 29 116 55 112 60 -8 8 -168 68 -197 73 -11 2
-33 -2 -50 -9z m151 -64 c15 -8 15 -10 -1 -16 -9 -3 -22 -3 -27 1 -6 3 -8 1
-5 -4 6 -10 -19 -24 -80 -44 -14 -4 -41 0 -70 11 -51 20 -49 26 5 11 18 -6 30
-6 27 -1 -3 4 1 11 7 14 7 3 -15 5 -50 4 -34 -1 -64 1 -67 4 -3 3 27 19 67 35
l72 31 53 -19 c29 -10 60 -22 69 -27z m31 12 c-3 -3 -12 -4 -19 -1 -8 3 -5 6
6 6 11 1 17 -2 13 -5z"/>
<path d="M465 890 c-3 -5 -20 -14 -38 -19 -31 -9 -31 -9 14 -10 50 -1 60 4 52
25 -6 16 -19 18 -28 4z"/>
<path d="M517 886 c-3 -7 0 -19 6 -25 8 -8 6 -11 -8 -12 -11 0 -14 -3 -7 -6 6
-2 10 -9 6 -14 -9 -15 10 -9 36 11 15 12 18 18 8 14 -10 -3 -18 -1 -18 5 0 6
15 11 33 12 26 0 28 2 12 8 -11 5 -23 7 -27 5 -4 -3 -9 0 -13 6 -9 14 -22 12
-28 -4z"/>
<path d="M766 934 c-7 -17 -8 -140 -2 -133 5 5 16 149 12 149 -2 0 -7 -7 -10
-16z"/>
<path d="M1325 780 c3 -5 13 -10 21 -10 8 0 14 5 14 10 0 6 -9 10 -21 10 -11
0 -17 -4 -14 -10z"/>
<path d="M840 750 c19 -13 30 -13 30 0 0 6 -10 10 -22 10 -19 0 -20 -2 -8 -10z"/>
<path d="M1360 750 c-13 -8 -13 -10 2 -10 9 0 20 5 23 10 8 13 -5 13 -25 0z"/>
<path d="M388 743 c7 -3 16 -2 19 1 4 3 -2 6 -13 5 -11 0 -14 -3 -6 -6z"/>
<path d="M1308 743 c6 -2 18 -2 25 0 6 3 1 5 -13 5 -14 0 -19 -2 -12 -5z"/>
<path d="M190 703 c0 -20 16 -23 36 -8 10 8 14 15 7 15 -6 0 -15 -5 -19 -11
-4 -8 -9 -7 -15 2 -6 10 -9 10 -9 2z"/>
<path d="M2900 816 c0 -2 7 -7 16 -10 8 -3 12 -2 9 4 -6 10 -25 14 -25 6z"/>
<path d="M3155 750 c3 -5 8 -10 11 -10 2 0 4 5 4 10 0 6 -5 10 -11 10 -5 0 -7
-4 -4 -10z"/>
<path d="M3130 680 c-19 -11 -50 -27 -67 -36 -18 -9 -33 -20 -33 -24 0 -4 -12
-11 -27 -15 -21 -5 -24 -8 -12 -16 7 -5 25 -9 38 -9 17 0 22 4 17 16 -5 13 -3
14 6 6 10 -8 27 -2 68 23 63 39 77 42 97 18 8 -10 12 -12 8 -5 -3 6 -1 12 6
12 6 0 0 11 -15 25 -33 30 -41 31 -86 5z"/>
<path d="M3269 661 c12 -8 12 -12 2 -24 -9 -12 -9 -17 0 -23 8 -4 9 -3 5 4 -5
8 1 12 14 12 12 0 19 -4 16 -8 -3 -5 10 -8 29 -7 24 0 35 -4 35 -13 0 -8 6
-12 13 -9 30 10 8 33 -53 54 -72 25 -82 27 -61 14z"/>
<path d="M3420 605 c0 -16 16 -20 24 -6 3 5 -1 11 -9 15 -9 3 -15 0 -15 -9z"/>
<path d="M3168 603 c6 -2 18 -2 25 0 6 3 1 5 -13 5 -14 0 -19 -2 -12 -5z"/>
<path d="M3242 593 c-10 -4 -9 -9 4 -24 22 -24 30 -24 37 2 3 12 3 18 0 15 -4
-3 -11 -2 -17 3 -6 4 -17 6 -24 4z"/>
<path d="M3324 593 c3 -3 -1 -11 -10 -17 -12 -9 -6 -12 30 -12 25 -1 46 3 46
7 0 5 -7 6 -15 3 -8 -4 -15 -2 -15 4 0 5 -9 12 -21 15 -12 3 -18 3 -15 0z"/>
<path d="M3121 579 c-13 -5 -32 -7 -42 -4 -11 4 -19 3 -19 -2 0 -16 173 -68
215 -65 37 3 65 16 65 31 0 3 -34 5 -75 4 -41 -1 -75 2 -75 7 0 4 -12 11 -26
14 -15 4 -24 10 -21 13 4 3 25 -2 48 -11 33 -13 40 -14 31 -3 -7 8 -9 17 -5
20 10 11 -69 7 -96 -4z"/>
<path d="M3656 527 c3 -10 9 -15 12 -12 3 3 0 11 -7 18 -10 9 -11 8 -5 -6z"/>
<path d="M3543 486 c0 -9 9 -13 23 -11 13 1 23 -1 22 -4 -3 -15 15 -40 24 -35
6 4 5 10 -3 15 -7 4 -11 11 -7 14 3 3 13 -1 22 -10 15 -15 16 -15 16 6 0 12
-3 19 -7 16 -3 -4 -17 0 -29 8 -15 10 -25 11 -29 4 -5 -7 -11 -7 -19 0 -9 8
-13 7 -13 -3z"/>
<path d="M3510 480 c0 -5 5 -10 10 -10 6 0 10 5 10 10 0 6 -4 10 -10 10 -5 0
-10 -4 -10 -10z"/>
<path d="M3460 470 c0 -5 5 -10 11 -10 5 0 7 5 4 10 -3 6 -8 10 -11 10 -2 0
-4 -4 -4 -10z"/>
<path d="M3040 461 c0 -5 9 -7 20 -4 11 3 20 7 20 9 0 2 -9 4 -20 4 -11 0 -20
-4 -20 -9z"/>
<path d="M3205 449 c-4 -6 -5 -12 -2 -15 2 -3 7 2 10 11 7 17 1 20 -8 4z"/>
<path d="M3520 449 c0 -5 9 -9 20 -9 11 0 20 2 20 4 0 2 -9 6 -20 9 -11 3 -20
1 -20 -4z"/>
<path d="M3273 433 c0 -8 6 -9 16 -4 8 5 26 5 40 -1 21 -7 24 -7 13 4 -16 16
-69 18 -69 1z"/>
<path d="M3678 443 c7 -3 16 -2 19 1 4 3 -2 6 -13 5 -11 0 -14 -3 -6 -6z"/>
<path d="M3690 769 c0 -4 -16 -5 -37 -2 -29 5 -34 4 -27 -8 5 -8 7 -22 5 -33
-1 -10 2 -15 7 -12 6 4 13 2 17 -4 3 -5 1 -10 -5 -10 -6 0 -8 -5 -5 -11 5 -7
12 -6 23 4 10 8 23 12 30 10 6 -3 12 0 12 5 0 6 -8 13 -17 15 -10 2 -5 3 10 1
16 -2 25 0 22 6 -3 5 0 7 8 4 8 -3 18 -1 22 5 3 7 -2 11 -14 11 -12 0 -21 6
-21 13 0 8 -7 14 -15 14 -8 0 -15 -4 -15 -8z m-25 -19 c3 -5 1 -10 -4 -10 -6
0 -11 5 -11 10 0 6 2 10 4 10 3 0 8 -4 11 -10z"/>
<path d="M3922 668 l-72 -51 102 -33 c57 -19 128 -41 159 -50 l56 -16 72 53
c40 28 68 55 64 59 -12 11 -268 90 -290 89 -10 0 -51 -23 -91 -51z m147 0 c11
-11 18 -25 15 -30 -3 -4 6 -8 20 -8 31 0 34 16 5 25 -11 4 -19 9 -17 11 5 4
92 -22 114 -34 14 -8 9 -15 -28 -40 -49 -34 -56 -34 -168 5 -25 8 -51 17 -59
19 -31 10 4 18 60 16 59 -3 60 -3 42 17 -16 19 -18 19 -34 5 -10 -9 -23 -14
-30 -12 -9 3 44 47 58 48 1 0 11 -10 22 -22z"/>
<path d="M4148 633 c6 -2 18 -2 25 0 6 3 1 5 -13 5 -14 0 -19 -2 -12 -5z"/>
<path d="M4040 610 c-8 -5 -13 -10 -10 -11 21 -3 38 -8 54 -15 18 -7 18 -6 0
14 -21 25 -23 25 -44 12z"/>
<path d="M4118 598 c20 -20 23 -21 34 -6 7 9 22 18 33 21 11 3 -5 5 -35 6
l-54 1 22 -22z"/>
<path d="M4291 704 c6 -18 143 -193 152 -194 4 0 -25 42 -64 93 -79 101 -94
118 -88 101z"/>
<path d="M3700 600 c0 -6 7 -10 15 -10 8 0 15 2 15 4 0 2 -7 6 -15 10 -8 3
-15 1 -15 -4z"/>
<path d="M3480 760 c0 -5 4 -10 9 -10 6 0 13 5 16 10 3 6 -1 10 -9 10 -9 0
-16 -4 -16 -10z"/>
<path d="M1370 679 c0 -14 24 -23 28 -11 2 7 9 9 15 5 7 -3 9 -2 4 2 -10 11
-47 14 -47 4z"/>
<path d="M3590 631 c0 -6 4 -13 10 -16 6 -3 7 1 4 9 -7 18 -14 21 -14 7z"/>
<path d="M3540 612 c0 -4 11 -9 26 -10 14 -1 23 2 19 8 -7 12 -45 14 -45 2z"/>
<path d="M1360 555 c-7 -8 -16 -12 -21 -9 -5 3 -9 0 -9 -6 0 -7 6 -10 14 -7
14 6 30 -16 19 -26 -2 -3 -21 -4 -41 -1 -34 3 -35 3 -7 -4 17 -5 40 -14 52
-20 17 -10 22 -9 27 5 4 11 0 20 -11 27 -16 9 -16 10 2 17 18 7 17 8 -5 8 -19
1 -22 3 -10 11 8 5 12 12 9 15 -4 3 -12 -1 -19 -10z"/>
<path d="M1940 446 c0 -8 4 -17 8 -20 4 -2 8 4 8 15 0 10 -4 19 -8 19 -4 0 -8
-6 -8 -14z"/>
<path d="M1970 440 c0 -12 37 -14 44 -2 2 4 -6 9 -20 10 -13 1 -24 -3 -24 -8z"/>
<path d="M2223 433 c15 -2 39 -2 55 0 15 2 2 4 -28 4 -30 0 -43 -2 -27 -4z"/>
<path d="M2130 420 c20 -13 33 -13 25 0 -3 6 -14 10 -23 10 -15 0 -15 -2 -2
-10z"/>
<path d="M2036 405 c4 -8 10 -12 15 -9 14 8 10 24 -6 24 -9 0 -12 -6 -9 -15z"/>
<path d="M2087 392 c-14 -15 -14 -19 -3 -19 8 0 15 3 14 6 -2 19 4 22 20 10
15 -13 16 -12 3 4 -16 21 -14 21 -34 -1z"/>
<path d="M2020 391 c0 -6 4 -13 10 -16 6 -3 7 1 4 9 -7 18 -14 21 -14 7z"/>
<path d="M2140 390 c0 -5 5 -10 11 -10 5 0 7 5 4 10 -3 6 -8 10 -11 10 -2 0
-4 -4 -4 -10z"/>
<path d="M4565 480 c-3 -5 1 -13 10 -16 22 -9 29 1 11 15 -10 8 -16 9 -21 1z"/>
<path d="M1780 375 c0 -8 2 -15 4 -15 2 0 6 7 10 15 3 8 1 15 -4 15 -6 0 -10
-7 -10 -15z"/>
<path d="M2367 406 c-4 -9 2 -13 18 -13 20 0 22 2 10 13 -7 8 -16 14 -18 14
-3 0 -7 -6 -10 -14z"/>
<path d="M3382 3760 c0 -14 2 -19 5 -12 2 6 2 18 0 25 -3 6 -5 1 -5 -13z"/>
<path d="M1462 3635 c0 -16 2 -22 5 -12 2 9 2 23 0 30 -3 6 -5 -1 -5 -18z"/>
<path d="M3381 3634 c0 -11 3 -14 6 -6 3 7 2 16 -1 19 -3 4 -6 -2 -5 -13z"/>
<path d="M1490 3555 c0 -5 5 -17 10 -25 5 -8 10 -10 10 -5 0 6 -5 17 -10 25
-5 8 -10 11 -10 5z"/>
<path d="M1718 3503 c6 -2 18 -2 25 0 6 3 1 5 -13 5 -14 0 -19 -2 -12 -5z"/>
<path d="M1523 3435 c0 -27 2 -38 4 -22 2 15 2 37 0 50 -2 12 -4 0 -4 -28z"/>
<path d="M3290 3419 c-7 -11 -10 -23 -7 -25 2 -2 9 7 15 21 14 30 7 33 -8 4z"/>
<path d="M3243 3230 c0 -25 2 -35 4 -22 2 12 2 32 0 45 -2 12 -4 2 -4 -23z"/>
<path d="M3038 3183 c6 -2 18 -2 25 0 6 3 1 5 -13 5 -14 0 -19 -2 -12 -5z"/>
<path d="M2950 3090 c0 -5 5 -10 10 -10 6 0 10 5 10 10 0 6 -4 10 -10 10 -5 0
-10 -4 -10 -10z"/>
<path d="M4370 1580 c0 -5 5 -10 10 -10 6 0 10 5 10 10 0 6 -4 10 -10 10 -5 0
-10 -4 -10 -10z"/>
<path d="M4473 1037 c-34 -23 -59 -45 -55 -49 4 -3 43 -16 87 -27 44 -11 100
-27 124 -36 24 -8 54 -15 67 -15 21 0 24 5 24 39 0 39 -1 40 -37 44 l-38 4 38
1 c52 3 49 28 -5 42 -24 6 -65 18 -92 26 -27 8 -50 14 -50 14 -1 -1 -29 -20
-63 -43z m134 -23 c3 -8 11 -14 19 -14 8 0 13 -4 12 -9 -2 -5 6 -17 17 -25 18
-14 18 -15 2 -16 -10 0 -20 7 -23 15 -4 8 -11 12 -17 8 -6 -4 -7 -1 -2 6 5 9
-5 12 -41 11 -89 -3 -90 -3 -48 29 40 29 68 28 81 -5z"/>
<path d="M4536 1015 c-18 -14 -17 -15 23 -15 38 0 42 2 31 15 -15 19 -29 19
-54 0z"/>
<path d="M160 980 c17 -11 47 -14 36 -3 -3 4 -17 8 -29 10 -17 2 -19 1 -7 -7z"/>
<path d="M774 662 c-6 -4 -13 -14 -16 -23 -8 -22 45 -23 81 -2 25 14 25 14 6
-2 -19 -16 -19 -17 -1 -13 10 1 22 13 27 25 7 19 5 21 -14 17 -12 -3 -28 -6
-34 -6 -7 -1 -13 -5 -13 -10 0 -4 -10 -7 -22 -7 -17 1 -19 2 -5 6 9 2 17 9 17
14 0 11 -11 11 -26 1z"/>
<path d="M160 628 c0 -11 12 -10 30 2 12 7 10 9 -8 7 -12 0 -22 -5 -22 -9z"/>
<path d="M986 623 c-6 -14 -5 -15 5 -6 7 7 10 15 7 18 -3 3 -9 -2 -12 -12z"/>
<path d="M1243 633 c9 -2 25 -2 35 0 9 3 1 5 -18 5 -19 0 -27 -2 -17 -5z"/>
<path d="M776 611 c5 -10 3 -13 -8 -8 -11 4 -18 -2 -23 -20 -3 -14 -3 -28 0
-31 3 -3 8 4 12 16 3 12 9 22 14 22 5 0 8 -4 7 -9 -2 -5 -1 -9 2 -8 3 0 16 -5
29 -12 13 -7 21 -8 17 -3 -4 6 2 8 14 5 l21 -6 -21 -14 c-11 -8 -24 -12 -28
-9 -16 9 -37 -14 -38 -42 -1 -32 24 -40 64 -20 25 13 30 38 6 38 -10 0 -14 -6
-11 -15 8 -20 -3 -24 -33 -13 -25 10 -25 10 14 28 34 16 41 16 53 4 19 -19 29
-18 13 1 -9 10 -9 15 -1 15 17 0 13 37 -4 44 -8 3 -15 12 -15 21 0 8 -7 15
-16 15 -14 0 -14 -3 -4 -15 11 -13 9 -15 -13 -15 -14 0 -32 10 -41 23 -9 12
-14 16 -10 8z"/>
<path d="M882 600 c0 -14 2 -19 5 -12 2 6 2 18 0 25 -3 6 -5 1 -5 -13z"/>
<path d="M1013 608 c1 -7 -6 -12 -15 -12 -10 1 -15 -2 -12 -7 8 -14 22 -11 44
11 l20 20 -20 0 c-11 0 -19 -6 -17 -12z"/>
<path d="M1082 607 c-9 -11 -10 -17 -2 -22 15 -9 23 -1 18 21 -3 15 -4 16 -16
1z"/>
<path d="M553 603 c9 -2 25 -2 35 0 9 3 1 5 -18 5 -19 0 -27 -2 -17 -5z"/>
<path d="M425 569 c-22 -10 -85 -39 -140 -63 l-100 -45 40 -17 c22 -9 42 -17
45 -19 3 -1 28 6 55 16 28 11 39 17 25 15 -14 -2 -34 -1 -45 4 -18 7 -19 8 -3
15 10 4 16 11 13 15 -3 5 0 12 6 16 8 4 9 3 5 -4 -8 -13 -4 -14 67 -17 50 -3
61 3 48 24 -7 11 -14 10 -34 -4 -14 -9 -34 -15 -44 -13 -12 2 -3 10 29 26 59
27 74 27 134 2 33 -14 51 -17 58 -10 16 16 30 12 16 -5 -10 -12 -10 -15 1 -15
10 -1 8 -4 -4 -11 -9 -5 -22 -7 -29 -3 -6 4 -8 3 -5 -3 3 -5 -23 -24 -59 -41
l-65 -32 -40 21 c-37 18 -44 19 -75 7 l-35 -14 72 -28 72 -28 126 57 c171 78
161 72 126 85 -16 6 -39 15 -50 20 -17 8 -56 24 -150 60 -13 5 -35 1 -60 -11z
m9 -67 c3 -5 -1 -9 -9 -9 -8 0 -12 4 -9 9 3 4 7 8 9 8 2 0 6 -4 9 -8z"/>
<path d="M1045 577 c19 -14 18 -15 -7 -10 -32 6 -62 -16 -44 -32 6 -6 22 -10
36 -11 14 0 36 -4 50 -8 19 -5 21 -5 10 3 -13 10 -13 11 0 12 10 0 8 3 -5 8
-11 4 -20 16 -20 27 0 11 -8 20 -20 22 -20 4 -20 4 0 -11z m10 -27 c4 -6 -6
-10 -22 -10 -22 0 -25 2 -13 10 19 12 27 12 35 0z"/>
<path d="M740 495 c0 -27 2 -46 5 -44 7 8 9 78 2 85 -4 4 -7 -14 -7 -41z"/>
<path d="M480 506 c0 -14 5 -26 11 -26 5 0 8 4 5 9 -4 5 -1 11 5 13 7 2 5 9
-5 17 -14 12 -16 10 -16 -13z"/>
<path d="M105 500 c3 -5 -1 -10 -9 -10 -9 0 -16 -5 -16 -10 0 -6 14 -9 30 -8
34 3 35 4 16 24 -17 16 -30 19 -21 4z"/>
<path d="M1033 483 c-17 -2 -37 -12 -45 -20 -9 -12 -10 -15 0 -9 6 4 12 2 12
-3 0 -6 -5 -11 -12 -11 -19 0 -2 -11 26 -16 55 -10 75 -22 69 -43 -4 -18 -1
-21 23 -21 22 0 25 3 14 9 -8 6 -17 8 -22 5 -4 -3 -6 8 -4 23 2 15 -2 34 -10
41 -8 7 -14 8 -14 2 0 -5 -11 -10 -24 -10 -19 0 -24 5 -23 20 1 14 8 20 22 19
35 -2 46 1 40 11 -3 6 -9 9 -13 8 -4 0 -21 -3 -39 -5z"/>
<path d="M389 453 c-12 -16 -12 -17 2 -5 9 7 25 9 34 5 13 -4 16 -3 11 5 -10
17 -31 15 -47 -5z"/>
<path d="M470 458 c0 -5 -4 -6 -10 -3 -16 10 -11 -1 7 -16 14 -12 16 -12 8 0
-6 10 -4 13 6 9 8 -3 27 0 43 7 l29 12 -41 0 c-23 0 -42 -4 -42 -9z"/>
<path d="M922 462 c-21 -3 -23 -8 -20 -50 3 -45 4 -47 33 -47 29 0 30 1 27 45
-4 52 -8 57 -40 52z"/>
<path d="M850 439 c0 -4 -8 -5 -19 -2 -10 2 -24 -2 -32 -10 -8 -7 -19 -16 -25
-18 -6 -2 -7 -14 -3 -29 5 -16 7 -19 8 -7 1 17 37 37 69 37 13 0 13 -2 -3 -14
-11 -8 -24 -12 -30 -9 -5 4 -7 2 -2 -2 4 -5 18 -10 30 -12 15 -2 18 0 9 6 -11
6 -10 10 3 15 11 4 15 12 11 22 -4 12 -2 15 9 10 8 -3 15 0 15 7 0 7 -9 13
-20 13 -11 0 -20 -3 -20 -7z"/>
<path d="M405 430 c3 -5 8 -10 11 -10 2 0 4 5 4 10 0 6 -5 10 -11 10 -5 0 -7
-4 -4 -10z"/>
<path d="M1122 410 c0 -19 2 -27 5 -17 2 9 2 25 0 35 -3 9 -5 1 -5 -18z"/>
<path d="M730 395 c0 -22 4 -34 10 -30 6 3 10 17 10 30 0 13 -4 27 -10 30 -6
4 -10 -8 -10 -30z"/>
<path d="M877 390 c-3 -11 -1 -20 4 -20 5 0 9 9 9 20 0 11 -2 20 -4 20 -2 0
-6 -9 -9 -20z"/>
<path d="M1013 395 c0 -6 6 -12 12 -12 6 0 12 6 12 12 0 6 -6 12 -12 12 -6 0
-12 -6 -12 -12z"/>
<path d="M4622 398 c2 -5 8 -9 13 -9 5 0 11 4 13 9 1 5 -4 9 -13 9 -9 0 -14
-4 -13 -9z"/>
<path d="M80 371 c0 -12 5 -21 11 -21 8 0 7 -5 -1 -15 -10 -12 -10 -22 -2 -40
6 -13 8 -25 4 -28 -4 -2 -2 -2 5 -1 7 2 15 -1 18 -6 4 -6 -3 -10 -14 -10 -12
0 -21 -6 -21 -14 0 -12 26 -14 150 -13 82 1 150 5 150 8 0 3 12 6 28 7 131 5
197 12 200 21 2 7 10 5 19 -5 12 -11 18 -12 23 -4 10 15 21 15 31 -2 7 -10 9
-10 9 0 0 9 5 10 19 2 25 -13 41 -13 21 0 -11 7 4 10 49 10 35 0 61 3 57 7 -3
4 6 13 21 20 24 11 16 12 -62 7 -49 -4 -96 -11 -102 -16 -9 -7 -18 -7 -28 2
-8 7 -22 10 -30 6 -24 -9 -17 5 17 36 21 19 38 26 51 22 13 -4 17 -2 13 5 -8
12 -56 11 -56 -1 0 -4 -9 -8 -21 -8 -15 0 -19 -4 -15 -16 5 -13 3 -14 -6 -7
-25 19 -47 23 -41 7 6 -16 -32 -20 -42 -4 -4 6 -12 10 -18 9 -7 -1 -25 -1 -42
1 -26 1 -27 3 -10 10 11 5 14 9 7 9 -7 1 -29 -6 -49 -14 -40 -17 -66 -20 -43
-5 11 7 6 9 -20 9 -19 -1 -27 -3 -17 -6 9 -2 17 -9 17 -14 0 -6 -5 -7 -10 -4
-6 4 -9 2 -8 -4 2 -5 -6 -17 -17 -25 -19 -16 -19 -16 10 -11 l30 5 -28 -11
c-35 -14 -46 -5 -23 20 11 12 13 21 7 25 -5 4 -14 -1 -19 -11 -9 -16 -11 -16
-27 0 -9 9 -22 17 -28 17 -7 0 -4 -7 6 -14 9 -7 17 -17 17 -21 0 -5 -13 4 -30
20 -16 16 -33 25 -37 22 -3 -4 -1 -7 6 -7 7 0 10 -4 7 -9 -14 -22 6 -40 40
-37 19 1 34 -2 34 -6 0 -9 -131 -10 -163 -1 -9 2 -14 9 -11 15 4 7 2 8 -4 4
-7 -4 -12 -2 -12 3 0 6 6 11 14 11 8 0 16 7 20 15 3 8 1 15 -4 15 -6 0 -10 -4
-10 -8 0 -5 -7 -9 -15 -9 -11 0 -12 4 -4 14 6 7 18 13 25 13 8 0 14 8 13 18 0
10 -3 12 -6 5 -7 -19 -34 -16 -31 3 2 10 -3 19 -9 21 -8 3 -13 -4 -13 -16z
m390 -61 c11 -11 30 -20 42 -20 47 0 8 -9 -65 -15 -76 -6 -78 -5 -67 14 22 42
60 51 90 21z m110 -2 c19 12 20 11 8 -8 -14 -21 -35 -22 -55 -3 -20 18 -15 25
7 11 16 -10 24 -10 40 0z"/>
<path d="M395 300 c-2 -3 10 -6 28 -5 18 0 36 -4 40 -10 5 -6 7 -4 4 5 -4 15
-64 24 -72 10z"/>
<path d="M3945 380 c-3 -5 -1 -10 4 -10 6 0 11 5 11 10 0 6 -2 10 -4 10 -3 0
-8 -4 -11 -10z"/>
<path d="M3964 369 c-9 -19 -12 -20 -24 -8 -8 8 -30 15 -49 17 -39 3 -39 -5 0
-11 15 -3 23 -11 22 -22 -1 -12 2 -14 9 -7 7 7 17 6 33 -4 18 -12 24 -12 41 1
17 13 17 14 2 15 -9 0 -20 5 -24 12 -4 6 -3 8 3 5 5 -3 10 0 10 8 0 22 -13 18
-23 -6z"/>
<path d="M1146 371 c-4 -5 3 -7 14 -4 23 6 26 13 6 13 -8 0 -17 -4 -20 -9z"/>
<path d="M3722 367 c10 -8 14 -18 10 -22 -4 -5 -1 -5 6 -1 17 10 15 14 -10 26
-21 10 -21 10 -6 -3z"/>
<path d="M1170 351 c0 -6 4 -13 10 -16 6 -3 7 1 4 9 -7 18 -14 21 -14 7z"/>
<path d="M3310 355 c0 -8 38 -11 55 -5 15 6 10 8 -17 8 -21 0 -38 -1 -38 -3z"/>
<path d="M767 343 c-10 -9 -9 -23 1 -23 5 0 9 7 9 15 0 17 -1 18 -10 8z"/>
<path d="M915 342 c-26 -9 -32 -52 -7 -47 9 2 26 4 38 4 14 1 20 8 20 26 0 26
-11 29 -51 17z"/>
<path d="M160 322 c0 -5 7 -9 15 -9 8 0 15 4 15 9 0 4 -7 8 -15 8 -8 0 -15 -4
-15 -8z"/>
<path d="M675 320 c-3 -5 1 -10 10 -10 9 0 13 5 10 10 -3 6 -8 10 -10 10 -2 0
-7 -4 -10 -10z"/>
<path d="M736 313 c-6 -14 -5 -15 5 -6 7 7 10 15 7 18 -3 3 -9 -2 -12 -12z"/>
<path d="M840 322 c0 -5 7 -9 15 -9 8 0 12 4 9 9 -3 4 -9 8 -15 8 -5 0 -9 -4
-9 -8z"/>
<path d="M3755 320 c-7 -12 2 -30 15 -30 5 0 7 8 4 18 -5 16 -5 16 9 0 8 -10
18 -18 22 -18 5 0 0 9 -10 20 -20 22 -31 25 -40 10z"/>
<path d="M3880 319 c0 -5 5 -7 10 -4 6 3 10 8 10 11 0 2 -4 4 -10 4 -5 0 -10
-5 -10 -11z"/>
<path d="M2073 309 c-16 -7 -16 -8 0 -8 9 -1 17 -4 17 -7 0 -4 -8 -13 -17 -20
-16 -12 -16 -13 -2 -14 49 -1 15 -55 -39 -63 -12 -2 -27 -8 -33 -14 -14 -14 8
-13 29 1 7 4 20 5 28 2 9 -3 12 -1 9 4 -4 6 7 10 24 10 17 0 31 5 31 11 0 5
-4 7 -10 4 -5 -3 -10 -1 -10 4 0 6 6 11 14 11 16 0 21 -12 32 -73 3 -21 9 -36
12 -33 7 7 -19 128 -29 141 -6 5 -9 2 -9 -8 0 -9 -4 -17 -9 -17 -5 0 -9 13 -9
30 1 17 5 27 11 23 6 -3 7 -1 3 5 -3 5 0 12 6 15 7 3 3 4 -9 4 -12 -1 -30 -4
-40 -8z"/>
<path d="M4215 264 c-38 -30 -73 -59 -78 -63 -4 -4 40 -24 99 -45 77 -27 118
-36 152 -34 l47 3 -74 24 c-55 18 -69 26 -55 31 12 5 3 7 -23 6 -23 0 -45 3
-49 6 -10 10 38 48 54 43 7 -3 11 -1 8 4 -3 4 2 16 12 24 20 19 62 12 62 -9 0
-8 5 -14 10 -14 6 0 10 -6 10 -14 0 -10 14 -14 53 -13 28 0 41 2 27 5 -14 2
-31 9 -37 14 -9 7 -13 7 -13 -1 0 -6 -8 -3 -18 7 -10 9 -18 18 -17 20 3 3 146
-45 152 -51 1 -2 -20 -22 -48 -45 l-52 -42 50 0 c44 0 57 5 102 42 36 29 47
44 39 50 -19 12 -313 108 -329 108 -8 -1 -45 -26 -84 -56z"/>
<path d="M2145 300 c3 -5 8 -10 11 -10 2 0 4 5 4 10 0 6 -5 10 -11 10 -5 0 -7
-4 -4 -10z"/>
<path d="M170 291 c0 -6 4 -13 10 -16 6 -3 7 1 4 9 -7 18 -14 21 -14 7z"/>
<path d="M3278 231 c-53 -36 -93 -69 -90 -72 16 -14 114 -39 154 -39 l43 1
-30 14 -30 13 47 -1 c29 -1 44 -5 40 -12 -3 -5 1 -4 10 2 8 7 19 9 23 5 5 -4
5 -1 1 5 -5 9 -28 12 -75 9 -87 -4 -103 4 -61 34 30 21 32 21 51 5 10 -10 19
-15 19 -10 0 4 -7 13 -16 20 -14 10 -13 13 9 28 24 15 72 13 62 -3 -3 -5 0
-12 6 -16 8 -4 9 -3 5 4 -4 7 -1 12 8 12 8 0 16 3 19 8 2 4 2 1 1 -5 -2 -7 1
-13 6 -13 5 0 35 -10 66 -21 45 -17 54 -23 40 -31 -9 -5 -21 -6 -28 -2 -6 4
-8 3 -4 -4 3 -6 -4 -18 -16 -26 -22 -15 -21 -16 27 -16 37 0 58 7 87 26 42 30
46 39 21 47 -10 3 -81 27 -158 55 l-140 49 -97 -66z m112 45 c0 -3 -4 -8 -10
-11 -5 -3 -10 -1 -10 4 0 6 5 11 10 11 6 0 10 -2 10 -4z"/>
<path d="M140 279 c0 -5 5 -7 10 -4 6 3 10 8 10 11 0 2 -4 4 -10 4 -5 0 -10
-5 -10 -11z"/>
<path d="M1098 283 c7 -3 16 -2 19 1 4 3 -2 6 -13 5 -11 0 -14 -3 -6 -6z"/>
<path d="M920 271 c-21 -6 -25 -14 -28 -49 -2 -23 -7 -40 -13 -37 -5 4 -9 1
-9 -4 0 -6 6 -11 14 -11 8 0 16 -5 18 -11 2 -6 14 -8 30 -4 23 6 28 14 34 52
8 53 -7 74 -46 64z"/>
<path d="M1243 272 c-13 -2 -23 -7 -23 -11 0 -10 39 -11 45 -2 6 11 55 2 55
-10 0 -5 -8 -6 -17 -3 -14 5 -15 4 -4 -4 20 -14 45 -4 31 13 -5 6 -8 14 -6 16
5 5 -51 6 -81 1z"/>
<path d="M1353 272 c-9 -5 -9 -11 0 -22 15 -19 57 -21 57 -3 0 8 4 11 10 8 5
-3 17 -2 26 3 26 14 0 22 -27 9 -26 -14 -63 -11 -54 4 7 11 4 11 -12 1z"/>
<path d="M1776 262 c-3 -5 1 -9 9 -9 8 0 12 4 9 9 -3 4 -7 8 -9 8 -2 0 -6 -4
-9 -8z"/>
<path d="M2273 263 c9 -2 25 -2 35 0 9 3 1 5 -18 5 -19 0 -27 -2 -17 -5z"/>
<path d="M1008 253 c7 -3 16 -2 19 1 4 3 -2 6 -13 5 -11 0 -14 -3 -6 -6z"/>
<path d="M1050 245 c-10 -12 -9 -15 4 -15 11 0 14 -5 10 -12 -5 -8 -2 -9 9 -5
10 4 17 1 18 -6 0 -7 2 -20 4 -29 2 -10 -2 -15 -10 -12 -17 7 -26 -8 -14 -26
6 -10 9 -11 9 -2 0 6 7 12 16 12 10 0 14 6 10 15 -3 8 -1 15 4 15 6 0 10 -8
10 -18 0 -10 5 -23 12 -30 15 -15 82 -16 73 -2 -3 6 4 14 17 19 14 6 17 10 7
10 -8 1 -24 -6 -35 -14 -36 -27 -51 -19 -58 31 -3 27 -2 52 4 59 7 8 5 12 -5
12 -8 0 -12 -4 -10 -7 3 -4 -6 -7 -19 -7 -14 0 -23 5 -22 11 2 6 1 8 -1 4 -3
-5 -9 -8 -14 -8 -6 0 -7 5 -4 10 9 15 -1 12 -15 -5z m70 -40 c0 -8 -4 -15 -10
-15 -5 0 -10 7 -10 15 0 8 5 15 10 15 6 0 10 -7 10 -15z"/>
<path d="M1264 251 c-5 -5 -18 -11 -29 -14 l-20 -5 20 -1 c22 -1 52 15 44 23
-3 3 -10 2 -15 -3z"/>
<path d="M4313 244 c-3 -9 -15 -20 -27 -24 -16 -7 -7 -9 33 -9 l54 -1 -23 25
c-28 29 -29 30 -37 9z m32 -14 c3 -6 -1 -7 -9 -4 -18 7 -21 14 -7 14 6 0 13
-4 16 -10z"/>
<path d="M588 233 c-20 -3 -25 -8 -21 -21 6 -15 4 -15 -10 -4 -16 14 -37 9
-37 -8 0 -14 51 -5 61 11 8 12 12 11 23 -3 16 -22 36 -23 36 -2 0 8 -4 12 -10
9 -6 -3 -7 1 -4 9 3 9 2 15 -2 15 -5 -1 -21 -4 -36 -6z"/>
<path d="M1420 230 c0 -5 19 -10 42 -10 49 0 47 5 -4 14 -24 4 -38 3 -38 -4z"/>
<path d="M1742 183 c5 -32 12 -60 15 -63 3 -3 3 13 0 35 -4 22 -7 50 -7 63 0
12 -4 22 -8 22 -5 0 -5 -26 0 -57z"/>
<path d="M2023 226 c0 -8 8 -11 20 -8 14 4 16 7 5 13 -19 12 -25 11 -25 -5z"/>
<path d="M1018 218 c5 -5 16 -8 23 -6 8 3 3 7 -10 11 -17 4 -21 3 -13 -5z"/>
<path d="M3375 220 c-3 -6 -1 -9 6 -8 7 2 13 -5 14 -14 0 -19 17 -26 22 -11 5
15 -34 46 -42 33z"/>
<path d="M290 210 c-16 -5 -19 -8 -7 -9 9 -1 17 -5 17 -10 0 -12 -33 -9 -43 4
-5 6 -7 4 -5 -4 3 -9 19 -15 45 -16 22 -1 45 -5 51 -9 7 -4 12 -2 12 3 0 6 5
11 11 11 5 0 8 -3 6 -7 -3 -5 8 -9 24 -10 16 -1 29 2 29 7 0 6 -9 10 -19 10
-11 0 -27 8 -36 17 -20 19 -49 23 -85 13z m50 -21 c0 -4 -7 -6 -15 -3 -8 4
-15 10 -15 15 0 4 7 6 15 3 8 -4 15 -10 15 -15z"/>
<path d="M395 211 c-3 -5 -2 -12 3 -15 5 -3 9 1 9 9 0 17 -3 19 -12 6z"/>
<path d="M421 203 c0 -11 3 -13 6 -5 2 6 10 9 15 6 7 -4 8 -2 4 4 -11 18 -26
14 -25 -5z"/>
<path d="M460 198 l-22 -18 26 0 c14 0 26 5 26 11 0 5 4 8 8 5 5 -3 9 1 9 8 0
18 -20 16 -47 -6z"/>
<path d="M1780 209 c0 -11 25 -22 39 -17 6 1 -1 8 -14 15 -14 6 -25 7 -25 2z"/>
<path d="M735 197 c-17 -10 -19 -18 -14 -47 4 -24 7 -27 8 -12 1 25 26 26 26
1 0 -10 17 -15 64 -16 35 -2 62 0 58 3 -6 6 -12 8 -75 19 -28 5 -41 12 -38 20
3 8 -2 11 -15 8 -11 -3 -19 0 -19 6 0 7 4 10 8 7 4 -2 14 -1 21 3 21 13 -2 20
-24 8z"/>
<path d="M989 198 c-11 -8 -11 -9 3 -4 11 3 18 -1 20 -13 2 -13 8 -16 22 -12
17 7 17 8 -6 23 -17 12 -29 13 -39 6z"/>
<path d="M1355 167 l-80 -42 48 -3 c34 -2 55 2 75 16 28 20 75 36 67 23 -9
-16 67 -41 123 -40 49 0 54 2 32 11 -48 20 -66 28 -124 53 -32 14 -59 25 -60
24 0 0 -37 -19 -81 -42z"/>
<path d="M3480 206 c0 -2 8 -10 18 -17 15 -13 16 -12 3 4 -13 16 -21 21 -21
13z"/>
<path d="M85 190 c-3 -5 -1 -10 4 -10 6 0 11 5 11 10 0 6 -2 10 -4 10 -3 0 -8
-4 -11 -10z"/>
<path d="M195 190 c-4 -6 -11 -7 -17 -4 -7 4 -8 2 -4 -4 9 -15 -63 -35 -80
-22 -8 8 -11 4 -11 -14 0 -19 3 -23 16 -17 47 24 88 38 104 35 9 -1 17 2 17 7
0 6 4 8 8 5 5 -3 9 1 9 9 0 17 -33 20 -42 5z"/>
<path d="M660 190 c20 -13 40 -13 40 0 0 6 -12 10 -27 10 -22 0 -25 -2 -13
-10z"/>
<path d="M3438 188 c6 -6 18 -8 28 -6 14 3 12 5 -9 10 -19 3 -25 2 -19 -4z"/>
<path d="M4341 191 c-11 -7 -4 -14 26 -30 41 -20 41 -20 36 0 -6 23 15 23 34
-1 12 -13 14 -13 24 3 5 9 16 17 24 17 8 0 16 4 19 8 6 10 -85 10 -99 0 -6 -4
-17 -3 -25 3 -18 11 -22 11 -39 0z"/>
<path d="M2465 168 c1 -16 9 -24 25 -26 23 -4 23 -3 8 19 -20 31 -35 34 -33 7z"/>
<path d="M3325 180 c-3 -6 1 -7 9 -4 18 7 21 14 7 14 -6 0 -13 -4 -16 -10z"/>
<path d="M573 173 c9 -2 25 -2 35 0 9 3 1 5 -18 5 -19 0 -27 -2 -17 -5z"/>
<path d="M1860 170 c-18 -12 -2 -12 25 0 13 6 15 9 5 9 -8 0 -22 -4 -30 -9z"/>
<path d="M2030 171 c0 -5 -8 -12 -17 -14 -17 -4 -17 -5 0 -6 20 -1 23 -17 5
-24 -8 -3 -6 -6 5 -6 9 -1 17 3 17 8 0 6 10 7 23 4 38 -9 62 -8 62 2 0 5 -6 9
-12 7 -7 -2 -13 5 -14 15 0 11 -3 13 -6 6 -2 -7 -15 -13 -29 -13 -17 0 -22 4
-18 15 4 8 1 15 -5 15 -6 0 -11 -4 -11 -9z"/>
<path d="M2403 169 c-9 -9 -8 -15 2 -25 26 -26 58 -6 35 21 -15 18 -22 19 -37
4z m28 -12 c-1 -12 -15 -9 -19 4 -3 6 1 10 8 8 6 -3 11 -8 11 -12z"/>
<path d="M3464 159 c-3 -6 1 -18 9 -27 13 -13 19 -13 31 -2 9 7 16 18 16 24 0
6 -7 3 -15 -8 -7 -10 -19 -15 -25 -11 -8 5 -8 11 1 21 7 9 8 14 1 14 -6 0 -14
-5 -18 -11z"/>
<path d="M4077 156 c-11 -8 -14 -17 -8 -20 5 -4 15 3 21 14 13 23 11 24 -13 6z"/>
<path d="M248 153 c6 -2 18 -2 25 0 6 3 1 5 -13 5 -14 0 -19 -2 -12 -5z"/>
<path d="M1840 139 c-49 -16 -51 -18 -20 -16 19 1 38 6 43 12 4 6 11 5 17 -5
8 -13 10 -12 10 3 0 11 4 15 12 11 7 -4 8 -3 4 4 -4 7 -8 12 -9 11 -1 -1 -27
-9 -57 -20z"/>
<path d="M380 135 c-24 -14 -23 -14 30 -14 53 0 54 0 30 14 -14 8 -27 14 -30
14 -3 0 -16 -6 -30 -14z"/>
<path d="M3805 130 c3 -5 14 -10 23 -10 15 0 15 2 2 10 -20 13 -33 13 -25 0z"/>
</g>
</svg>
